<?xml version="1.0" encoding="utf-8"?>
<svg xmlns="http://www.w3.org/2000/svg" xmlns:xlink="http://www.w3.org/1999/xlink" width="600" height="400" viewBox="0 0 2400 1600">
<defs>
  <clipPath id="clip810">
    <rect x="0" y="0" width="2400" height="1600"/>
  </clipPath>
</defs>
<path clip-path="url(#clip810)" d="M0 1600 L2400 1600 L2400 0 L0 0  Z" fill="#ffffff" fill-rule="evenodd" fill-opacity="1"/>
<defs>
  <clipPath id="clip811">
    <rect x="219" y="123" width="2134" height="1301"/>
  </clipPath>
</defs>
<path clip-path="url(#clip810)" d="M219.866 1423.18 L2352.76 1423.18 L2352.76 123.472 L219.866 123.472  Z" fill="#ffffff" fill-rule="evenodd" fill-opacity="1"/>
<polyline clip-path="url(#clip811)" style="stroke:#000000; stroke-linecap:round; stroke-linejoin:round; stroke-width:2; stroke-opacity:0.1; fill:none" points="280.231,1423.18 280.231,123.472 "/>
<polyline clip-path="url(#clip811)" style="stroke:#000000; stroke-linecap:round; stroke-linejoin:round; stroke-width:2; stroke-opacity:0.1; fill:none" points="783.271,1423.18 783.271,123.472 "/>
<polyline clip-path="url(#clip811)" style="stroke:#000000; stroke-linecap:round; stroke-linejoin:round; stroke-width:2; stroke-opacity:0.1; fill:none" points="1286.31,1423.18 1286.31,123.472 "/>
<polyline clip-path="url(#clip811)" style="stroke:#000000; stroke-linecap:round; stroke-linejoin:round; stroke-width:2; stroke-opacity:0.1; fill:none" points="1789.35,1423.18 1789.35,123.472 "/>
<polyline clip-path="url(#clip811)" style="stroke:#000000; stroke-linecap:round; stroke-linejoin:round; stroke-width:2; stroke-opacity:0.1; fill:none" points="2292.39,1423.18 2292.39,123.472 "/>
<polyline clip-path="url(#clip811)" style="stroke:#000000; stroke-linecap:round; stroke-linejoin:round; stroke-width:2; stroke-opacity:0.1; fill:none" points="219.866,1423.18 2352.76,1423.18 "/>
<polyline clip-path="url(#clip811)" style="stroke:#000000; stroke-linecap:round; stroke-linejoin:round; stroke-width:2; stroke-opacity:0.1; fill:none" points="219.866,1163.24 2352.76,1163.24 "/>
<polyline clip-path="url(#clip811)" style="stroke:#000000; stroke-linecap:round; stroke-linejoin:round; stroke-width:2; stroke-opacity:0.1; fill:none" points="219.866,903.297 2352.76,903.297 "/>
<polyline clip-path="url(#clip811)" style="stroke:#000000; stroke-linecap:round; stroke-linejoin:round; stroke-width:2; stroke-opacity:0.1; fill:none" points="219.866,643.355 2352.76,643.355 "/>
<polyline clip-path="url(#clip811)" style="stroke:#000000; stroke-linecap:round; stroke-linejoin:round; stroke-width:2; stroke-opacity:0.1; fill:none" points="219.866,383.414 2352.76,383.414 "/>
<polyline clip-path="url(#clip811)" style="stroke:#000000; stroke-linecap:round; stroke-linejoin:round; stroke-width:2; stroke-opacity:0.1; fill:none" points="219.866,123.472 2352.76,123.472 "/>
<polyline clip-path="url(#clip810)" style="stroke:#000000; stroke-linecap:round; stroke-linejoin:round; stroke-width:4; stroke-opacity:1; fill:none" points="219.866,1423.18 2352.76,1423.18 "/>
<polyline clip-path="url(#clip810)" style="stroke:#000000; stroke-linecap:round; stroke-linejoin:round; stroke-width:4; stroke-opacity:1; fill:none" points="280.231,1423.18 280.231,1404.28 "/>
<polyline clip-path="url(#clip810)" style="stroke:#000000; stroke-linecap:round; stroke-linejoin:round; stroke-width:4; stroke-opacity:1; fill:none" points="783.271,1423.18 783.271,1404.28 "/>
<polyline clip-path="url(#clip810)" style="stroke:#000000; stroke-linecap:round; stroke-linejoin:round; stroke-width:4; stroke-opacity:1; fill:none" points="1286.31,1423.18 1286.31,1404.28 "/>
<polyline clip-path="url(#clip810)" style="stroke:#000000; stroke-linecap:round; stroke-linejoin:round; stroke-width:4; stroke-opacity:1; fill:none" points="1789.35,1423.18 1789.35,1404.28 "/>
<polyline clip-path="url(#clip810)" style="stroke:#000000; stroke-linecap:round; stroke-linejoin:round; stroke-width:4; stroke-opacity:1; fill:none" points="2292.39,1423.18 2292.39,1404.28 "/>
<path clip-path="url(#clip810)" d="M242.535 1454.1 Q238.923 1454.1 237.095 1457.66 Q235.289 1461.2 235.289 1468.33 Q235.289 1475.44 237.095 1479.01 Q238.923 1482.55 242.535 1482.55 Q246.169 1482.55 247.974 1479.01 Q249.803 1475.44 249.803 1468.33 Q249.803 1461.2 247.974 1457.66 Q246.169 1454.1 242.535 1454.1 M242.535 1450.39 Q248.345 1450.39 251.4 1455 Q254.479 1459.58 254.479 1468.33 Q254.479 1477.06 251.4 1481.67 Q248.345 1486.25 242.535 1486.25 Q236.724 1486.25 233.646 1481.67 Q230.59 1477.06 230.59 1468.33 Q230.59 1459.58 233.646 1455 Q236.724 1450.39 242.535 1450.39 Z" fill="#000000" fill-rule="nonzero" fill-opacity="1" /><path clip-path="url(#clip810)" d="M262.696 1479.7 L267.581 1479.7 L267.581 1485.58 L262.696 1485.58 L262.696 1479.7 Z" fill="#000000" fill-rule="nonzero" fill-opacity="1" /><path clip-path="url(#clip810)" d="M287.766 1454.1 Q284.155 1454.1 282.326 1457.66 Q280.52 1461.2 280.52 1468.33 Q280.52 1475.44 282.326 1479.01 Q284.155 1482.55 287.766 1482.55 Q291.4 1482.55 293.206 1479.01 Q295.034 1475.44 295.034 1468.33 Q295.034 1461.2 293.206 1457.66 Q291.4 1454.1 287.766 1454.1 M287.766 1450.39 Q293.576 1450.39 296.631 1455 Q299.71 1459.58 299.71 1468.33 Q299.71 1477.06 296.631 1481.67 Q293.576 1486.25 287.766 1486.25 Q281.956 1486.25 278.877 1481.67 Q275.821 1477.06 275.821 1468.33 Q275.821 1459.58 278.877 1455 Q281.956 1450.39 287.766 1450.39 Z" fill="#000000" fill-rule="nonzero" fill-opacity="1" /><path clip-path="url(#clip810)" d="M317.928 1454.1 Q314.317 1454.1 312.488 1457.66 Q310.682 1461.2 310.682 1468.33 Q310.682 1475.44 312.488 1479.01 Q314.317 1482.55 317.928 1482.55 Q321.562 1482.55 323.367 1479.01 Q325.196 1475.44 325.196 1468.33 Q325.196 1461.2 323.367 1457.66 Q321.562 1454.1 317.928 1454.1 M317.928 1450.39 Q323.738 1450.39 326.793 1455 Q329.872 1459.58 329.872 1468.33 Q329.872 1477.06 326.793 1481.67 Q323.738 1486.25 317.928 1486.25 Q312.117 1486.25 309.039 1481.67 Q305.983 1477.06 305.983 1468.33 Q305.983 1459.58 309.039 1455 Q312.117 1450.39 317.928 1450.39 Z" fill="#000000" fill-rule="nonzero" fill-opacity="1" /><path clip-path="url(#clip810)" d="M746.072 1454.1 Q742.461 1454.1 740.632 1457.66 Q738.827 1461.2 738.827 1468.33 Q738.827 1475.44 740.632 1479.01 Q742.461 1482.55 746.072 1482.55 Q749.706 1482.55 751.512 1479.01 Q753.341 1475.44 753.341 1468.33 Q753.341 1461.2 751.512 1457.66 Q749.706 1454.1 746.072 1454.1 M746.072 1450.39 Q751.882 1450.39 754.938 1455 Q758.017 1459.58 758.017 1468.33 Q758.017 1477.06 754.938 1481.67 Q751.882 1486.25 746.072 1486.25 Q740.262 1486.25 737.183 1481.67 Q734.128 1477.06 734.128 1468.33 Q734.128 1459.58 737.183 1455 Q740.262 1450.39 746.072 1450.39 Z" fill="#000000" fill-rule="nonzero" fill-opacity="1" /><path clip-path="url(#clip810)" d="M766.234 1479.7 L771.118 1479.7 L771.118 1485.58 L766.234 1485.58 L766.234 1479.7 Z" fill="#000000" fill-rule="nonzero" fill-opacity="1" /><path clip-path="url(#clip810)" d="M785.331 1481.64 L801.651 1481.64 L801.651 1485.58 L779.706 1485.58 L779.706 1481.64 Q782.368 1478.89 786.952 1474.26 Q791.558 1469.61 792.739 1468.27 Q794.984 1465.74 795.864 1464.01 Q796.766 1462.25 796.766 1460.56 Q796.766 1457.8 794.822 1456.07 Q792.901 1454.33 789.799 1454.33 Q787.6 1454.33 785.146 1455.09 Q782.716 1455.86 779.938 1457.41 L779.938 1452.69 Q782.762 1451.55 785.216 1450.97 Q787.669 1450.39 789.706 1450.39 Q795.077 1450.39 798.271 1453.08 Q801.465 1455.77 801.465 1460.26 Q801.465 1462.39 800.655 1464.31 Q799.868 1466.2 797.762 1468.8 Q797.183 1469.47 794.081 1472.69 Q790.979 1475.88 785.331 1481.64 Z" fill="#000000" fill-rule="nonzero" fill-opacity="1" /><path clip-path="url(#clip810)" d="M811.512 1451.02 L829.868 1451.02 L829.868 1454.96 L815.794 1454.96 L815.794 1463.43 Q816.813 1463.08 817.831 1462.92 Q818.85 1462.73 819.868 1462.73 Q825.655 1462.73 829.035 1465.9 Q832.414 1469.08 832.414 1474.49 Q832.414 1480.07 828.942 1483.17 Q825.47 1486.25 819.151 1486.25 Q816.975 1486.25 814.706 1485.88 Q812.461 1485.51 810.053 1484.77 L810.053 1480.07 Q812.137 1481.2 814.359 1481.76 Q816.581 1482.32 819.058 1482.32 Q823.063 1482.32 825.4 1480.21 Q827.738 1478.1 827.738 1474.49 Q827.738 1470.88 825.4 1468.77 Q823.063 1466.67 819.058 1466.67 Q817.183 1466.67 815.308 1467.08 Q813.456 1467.5 811.512 1468.38 L811.512 1451.02 Z" fill="#000000" fill-rule="nonzero" fill-opacity="1" /><path clip-path="url(#clip810)" d="M1248.61 1454.1 Q1245 1454.1 1243.17 1457.66 Q1241.37 1461.2 1241.37 1468.33 Q1241.37 1475.44 1243.17 1479.01 Q1245 1482.55 1248.61 1482.55 Q1252.25 1482.55 1254.05 1479.01 Q1255.88 1475.44 1255.88 1468.33 Q1255.88 1461.2 1254.05 1457.66 Q1252.25 1454.1 1248.61 1454.1 M1248.61 1450.39 Q1254.42 1450.39 1257.48 1455 Q1260.56 1459.58 1260.56 1468.33 Q1260.56 1477.06 1257.48 1481.67 Q1254.42 1486.25 1248.61 1486.25 Q1242.8 1486.25 1239.73 1481.67 Q1236.67 1477.06 1236.67 1468.33 Q1236.67 1459.58 1239.73 1455 Q1242.8 1450.39 1248.61 1450.39 Z" fill="#000000" fill-rule="nonzero" fill-opacity="1" /><path clip-path="url(#clip810)" d="M1268.78 1479.7 L1273.66 1479.7 L1273.66 1485.58 L1268.78 1485.58 L1268.78 1479.7 Z" fill="#000000" fill-rule="nonzero" fill-opacity="1" /><path clip-path="url(#clip810)" d="M1283.89 1451.02 L1302.25 1451.02 L1302.25 1454.96 L1288.17 1454.96 L1288.17 1463.43 Q1289.19 1463.08 1290.21 1462.92 Q1291.23 1462.73 1292.25 1462.73 Q1298.04 1462.73 1301.42 1465.9 Q1304.79 1469.08 1304.79 1474.49 Q1304.79 1480.07 1301.32 1483.17 Q1297.85 1486.25 1291.53 1486.25 Q1289.36 1486.25 1287.09 1485.88 Q1284.84 1485.51 1282.43 1484.77 L1282.43 1480.07 Q1284.52 1481.2 1286.74 1481.76 Q1288.96 1482.32 1291.44 1482.32 Q1295.44 1482.32 1297.78 1480.21 Q1300.12 1478.1 1300.12 1474.49 Q1300.12 1470.88 1297.78 1468.77 Q1295.44 1466.67 1291.44 1466.67 Q1289.56 1466.67 1287.69 1467.08 Q1285.84 1467.5 1283.89 1468.38 L1283.89 1451.02 Z" fill="#000000" fill-rule="nonzero" fill-opacity="1" /><path clip-path="url(#clip810)" d="M1324.01 1454.1 Q1320.4 1454.1 1318.57 1457.66 Q1316.76 1461.2 1316.76 1468.33 Q1316.76 1475.44 1318.57 1479.01 Q1320.4 1482.55 1324.01 1482.55 Q1327.64 1482.55 1329.45 1479.01 Q1331.28 1475.44 1331.28 1468.33 Q1331.28 1461.2 1329.45 1457.66 Q1327.64 1454.1 1324.01 1454.1 M1324.01 1450.39 Q1329.82 1450.39 1332.87 1455 Q1335.95 1459.58 1335.95 1468.33 Q1335.95 1477.06 1332.87 1481.67 Q1329.82 1486.25 1324.01 1486.25 Q1318.2 1486.25 1315.12 1481.67 Q1312.06 1477.06 1312.06 1468.33 Q1312.06 1459.58 1315.12 1455 Q1318.2 1450.39 1324.01 1450.39 Z" fill="#000000" fill-rule="nonzero" fill-opacity="1" /><path clip-path="url(#clip810)" d="M1752.15 1454.1 Q1748.54 1454.1 1746.71 1457.66 Q1744.91 1461.2 1744.91 1468.33 Q1744.91 1475.44 1746.71 1479.01 Q1748.54 1482.55 1752.15 1482.55 Q1755.79 1482.55 1757.59 1479.01 Q1759.42 1475.44 1759.42 1468.33 Q1759.42 1461.2 1757.59 1457.66 Q1755.79 1454.1 1752.15 1454.1 M1752.15 1450.39 Q1757.96 1450.39 1761.02 1455 Q1764.1 1459.58 1764.1 1468.33 Q1764.1 1477.06 1761.02 1481.67 Q1757.96 1486.25 1752.15 1486.25 Q1746.34 1486.25 1743.26 1481.67 Q1740.21 1477.06 1740.21 1468.33 Q1740.21 1459.58 1743.26 1455 Q1746.34 1450.39 1752.15 1450.39 Z" fill="#000000" fill-rule="nonzero" fill-opacity="1" /><path clip-path="url(#clip810)" d="M1772.31 1479.7 L1777.2 1479.7 L1777.2 1485.58 L1772.31 1485.58 L1772.31 1479.7 Z" fill="#000000" fill-rule="nonzero" fill-opacity="1" /><path clip-path="url(#clip810)" d="M1786.2 1451.02 L1808.43 1451.02 L1808.43 1453.01 L1795.88 1485.58 L1790.99 1485.58 L1802.8 1454.96 L1786.2 1454.96 L1786.2 1451.02 Z" fill="#000000" fill-rule="nonzero" fill-opacity="1" /><path clip-path="url(#clip810)" d="M1817.59 1451.02 L1835.95 1451.02 L1835.95 1454.96 L1821.87 1454.96 L1821.87 1463.43 Q1822.89 1463.08 1823.91 1462.92 Q1824.93 1462.73 1825.95 1462.73 Q1831.74 1462.73 1835.11 1465.9 Q1838.49 1469.08 1838.49 1474.49 Q1838.49 1480.07 1835.02 1483.17 Q1831.55 1486.25 1825.23 1486.25 Q1823.05 1486.25 1820.79 1485.88 Q1818.54 1485.51 1816.13 1484.77 L1816.13 1480.07 Q1818.22 1481.2 1820.44 1481.76 Q1822.66 1482.32 1825.14 1482.32 Q1829.14 1482.32 1831.48 1480.21 Q1833.82 1478.1 1833.82 1474.49 Q1833.82 1470.88 1831.48 1468.77 Q1829.14 1466.67 1825.14 1466.67 Q1823.26 1466.67 1821.39 1467.08 Q1819.54 1467.5 1817.59 1468.38 L1817.59 1451.02 Z" fill="#000000" fill-rule="nonzero" fill-opacity="1" /><path clip-path="url(#clip810)" d="M2244.46 1481.64 L2252.1 1481.64 L2252.1 1455.28 L2243.79 1456.95 L2243.79 1452.69 L2252.06 1451.02 L2256.73 1451.02 L2256.73 1481.64 L2264.37 1481.64 L2264.37 1485.58 L2244.46 1485.58 L2244.46 1481.64 Z" fill="#000000" fill-rule="nonzero" fill-opacity="1" /><path clip-path="url(#clip810)" d="M2273.81 1479.7 L2278.7 1479.7 L2278.7 1485.58 L2273.81 1485.58 L2273.81 1479.7 Z" fill="#000000" fill-rule="nonzero" fill-opacity="1" /><path clip-path="url(#clip810)" d="M2298.88 1454.1 Q2295.27 1454.1 2293.44 1457.66 Q2291.64 1461.2 2291.64 1468.33 Q2291.64 1475.44 2293.44 1479.01 Q2295.27 1482.55 2298.88 1482.55 Q2302.52 1482.55 2304.32 1479.01 Q2306.15 1475.44 2306.15 1468.33 Q2306.15 1461.2 2304.32 1457.66 Q2302.52 1454.1 2298.88 1454.1 M2298.88 1450.39 Q2304.69 1450.39 2307.75 1455 Q2310.83 1459.58 2310.83 1468.33 Q2310.83 1477.06 2307.75 1481.67 Q2304.69 1486.25 2298.88 1486.25 Q2293.07 1486.25 2290 1481.67 Q2286.94 1477.06 2286.94 1468.33 Q2286.94 1459.58 2290 1455 Q2293.07 1450.39 2298.88 1450.39 Z" fill="#000000" fill-rule="nonzero" fill-opacity="1" /><path clip-path="url(#clip810)" d="M2329.05 1454.1 Q2325.43 1454.1 2323.61 1457.66 Q2321.8 1461.2 2321.8 1468.33 Q2321.8 1475.44 2323.61 1479.01 Q2325.43 1482.55 2329.05 1482.55 Q2332.68 1482.55 2334.49 1479.01 Q2336.31 1475.44 2336.31 1468.33 Q2336.31 1461.2 2334.49 1457.66 Q2332.68 1454.1 2329.05 1454.1 M2329.05 1450.39 Q2334.86 1450.39 2337.91 1455 Q2340.99 1459.58 2340.99 1468.33 Q2340.99 1477.06 2337.91 1481.67 Q2334.86 1486.25 2329.05 1486.25 Q2323.24 1486.25 2320.16 1481.67 Q2317.1 1477.06 2317.1 1468.33 Q2317.1 1459.58 2320.16 1455 Q2323.24 1450.39 2329.05 1450.39 Z" fill="#000000" fill-rule="nonzero" fill-opacity="1" /><path clip-path="url(#clip810)" d="M1216.94 1568.04 L1198.8 1520.52 L1205.51 1520.52 L1220.57 1560.53 L1235.66 1520.52 L1242.34 1520.52 L1224.23 1568.04 L1216.94 1568.04 Z" fill="#000000" fill-rule="nonzero" fill-opacity="1" /><path clip-path="url(#clip810)" d="M1260.16 1550.12 Q1253.07 1550.12 1250.33 1551.75 Q1247.59 1553.37 1247.59 1557.29 Q1247.59 1560.4 1249.63 1562.25 Q1251.7 1564.07 1255.23 1564.07 Q1260.1 1564.07 1263.03 1560.63 Q1265.99 1557.16 1265.99 1551.43 L1265.99 1550.12 L1260.16 1550.12 M1271.85 1547.71 L1271.85 1568.04 L1265.99 1568.04 L1265.99 1562.63 Q1263.98 1565.88 1260.99 1567.44 Q1258 1568.97 1253.67 1568.97 Q1248.2 1568.97 1244.95 1565.91 Q1241.74 1562.82 1241.74 1557.67 Q1241.74 1551.65 1245.75 1548.6 Q1249.79 1545.54 1257.78 1545.54 L1265.99 1545.54 L1265.99 1544.97 Q1265.99 1540.93 1263.31 1538.73 Q1260.67 1536.5 1255.87 1536.5 Q1252.81 1536.5 1249.92 1537.23 Q1247.02 1537.97 1244.35 1539.43 L1244.35 1534.02 Q1247.56 1532.78 1250.58 1532.17 Q1253.61 1531.54 1256.47 1531.54 Q1264.21 1531.54 1268.03 1535.55 Q1271.85 1539.56 1271.85 1547.71 Z" fill="#000000" fill-rule="nonzero" fill-opacity="1" /><path clip-path="url(#clip810)" d="M1283.91 1518.52 L1289.76 1518.52 L1289.76 1568.04 L1283.91 1568.04 L1283.91 1518.52 Z" fill="#000000" fill-rule="nonzero" fill-opacity="1" /><path clip-path="url(#clip810)" d="M1301.41 1553.98 L1301.41 1532.4 L1307.27 1532.4 L1307.27 1553.75 Q1307.27 1558.81 1309.24 1561.36 Q1311.22 1563.87 1315.16 1563.87 Q1319.91 1563.87 1322.64 1560.85 Q1325.41 1557.83 1325.41 1552.61 L1325.41 1532.4 L1331.27 1532.4 L1331.27 1568.04 L1325.41 1568.04 L1325.41 1562.57 Q1323.28 1565.82 1320.45 1567.41 Q1317.65 1568.97 1313.92 1568.97 Q1307.78 1568.97 1304.6 1565.15 Q1301.41 1561.33 1301.41 1553.98 M1316.15 1531.54 L1316.15 1531.54 Z" fill="#000000" fill-rule="nonzero" fill-opacity="1" /><path clip-path="url(#clip810)" d="M1373.82 1548.76 L1373.82 1551.62 L1346.9 1551.62 Q1347.28 1557.67 1350.53 1560.85 Q1353.8 1564 1359.63 1564 Q1363 1564 1366.15 1563.17 Q1369.34 1562.35 1372.46 1560.69 L1372.46 1566.23 Q1369.3 1567.57 1365.99 1568.27 Q1362.68 1568.97 1359.28 1568.97 Q1350.75 1568.97 1345.75 1564 Q1340.79 1559.04 1340.79 1550.57 Q1340.79 1541.82 1345.5 1536.69 Q1350.24 1531.54 1358.26 1531.54 Q1365.45 1531.54 1369.62 1536.18 Q1373.82 1540.8 1373.82 1548.76 M1367.97 1547.04 Q1367.9 1542.23 1365.26 1539.37 Q1362.65 1536.5 1358.32 1536.5 Q1353.42 1536.5 1350.46 1539.27 Q1347.53 1542.04 1347.09 1547.07 L1367.97 1547.04 Z" fill="#000000" fill-rule="nonzero" fill-opacity="1" /><polyline clip-path="url(#clip810)" style="stroke:#000000; stroke-linecap:round; stroke-linejoin:round; stroke-width:4; stroke-opacity:1; fill:none" points="219.866,1423.18 219.866,123.472 "/>
<polyline clip-path="url(#clip810)" style="stroke:#000000; stroke-linecap:round; stroke-linejoin:round; stroke-width:4; stroke-opacity:1; fill:none" points="219.866,1423.18 238.764,1423.18 "/>
<polyline clip-path="url(#clip810)" style="stroke:#000000; stroke-linecap:round; stroke-linejoin:round; stroke-width:4; stroke-opacity:1; fill:none" points="219.866,1163.24 238.764,1163.24 "/>
<polyline clip-path="url(#clip810)" style="stroke:#000000; stroke-linecap:round; stroke-linejoin:round; stroke-width:4; stroke-opacity:1; fill:none" points="219.866,903.297 238.764,903.297 "/>
<polyline clip-path="url(#clip810)" style="stroke:#000000; stroke-linecap:round; stroke-linejoin:round; stroke-width:4; stroke-opacity:1; fill:none" points="219.866,643.355 238.764,643.355 "/>
<polyline clip-path="url(#clip810)" style="stroke:#000000; stroke-linecap:round; stroke-linejoin:round; stroke-width:4; stroke-opacity:1; fill:none" points="219.866,383.414 238.764,383.414 "/>
<polyline clip-path="url(#clip810)" style="stroke:#000000; stroke-linecap:round; stroke-linejoin:round; stroke-width:4; stroke-opacity:1; fill:none" points="219.866,123.472 238.764,123.472 "/>
<path clip-path="url(#clip810)" d="M126.691 1408.98 Q123.08 1408.98 121.251 1412.54 Q119.445 1416.08 119.445 1423.21 Q119.445 1430.32 121.251 1433.89 Q123.08 1437.43 126.691 1437.43 Q130.325 1437.43 132.13 1433.89 Q133.959 1430.32 133.959 1423.21 Q133.959 1416.08 132.13 1412.54 Q130.325 1408.98 126.691 1408.98 M126.691 1405.27 Q132.501 1405.27 135.556 1409.88 Q138.635 1414.46 138.635 1423.21 Q138.635 1431.94 135.556 1436.55 Q132.501 1441.13 126.691 1441.13 Q120.88 1441.13 117.802 1436.55 Q114.746 1431.94 114.746 1423.21 Q114.746 1414.46 117.802 1409.88 Q120.88 1405.27 126.691 1405.27 Z" fill="#000000" fill-rule="nonzero" fill-opacity="1" /><path clip-path="url(#clip810)" d="M146.853 1434.58 L151.737 1434.58 L151.737 1440.46 L146.853 1440.46 L146.853 1434.58 Z" fill="#000000" fill-rule="nonzero" fill-opacity="1" /><path clip-path="url(#clip810)" d="M171.922 1408.98 Q168.311 1408.98 166.482 1412.54 Q164.677 1416.08 164.677 1423.21 Q164.677 1430.32 166.482 1433.89 Q168.311 1437.43 171.922 1437.43 Q175.556 1437.43 177.362 1433.89 Q179.19 1430.32 179.19 1423.21 Q179.19 1416.08 177.362 1412.54 Q175.556 1408.98 171.922 1408.98 M171.922 1405.27 Q177.732 1405.27 180.788 1409.88 Q183.866 1414.46 183.866 1423.21 Q183.866 1431.94 180.788 1436.55 Q177.732 1441.13 171.922 1441.13 Q166.112 1441.13 163.033 1436.55 Q159.978 1431.94 159.978 1423.21 Q159.978 1414.46 163.033 1409.88 Q166.112 1405.27 171.922 1405.27 Z" fill="#000000" fill-rule="nonzero" fill-opacity="1" /><path clip-path="url(#clip810)" d="M128.288 1149.04 Q124.677 1149.04 122.848 1152.6 Q121.043 1156.14 121.043 1163.27 Q121.043 1170.38 122.848 1173.94 Q124.677 1177.49 128.288 1177.49 Q131.922 1177.49 133.728 1173.94 Q135.556 1170.38 135.556 1163.27 Q135.556 1156.14 133.728 1152.6 Q131.922 1149.04 128.288 1149.04 M128.288 1145.33 Q134.098 1145.33 137.154 1149.94 Q140.232 1154.52 140.232 1163.27 Q140.232 1172 137.154 1176.61 Q134.098 1181.19 128.288 1181.19 Q122.478 1181.19 119.399 1176.61 Q116.343 1172 116.343 1163.27 Q116.343 1154.52 119.399 1149.94 Q122.478 1145.33 128.288 1145.33 Z" fill="#000000" fill-rule="nonzero" fill-opacity="1" /><path clip-path="url(#clip810)" d="M148.45 1174.64 L153.334 1174.64 L153.334 1180.52 L148.45 1180.52 L148.45 1174.64 Z" fill="#000000" fill-rule="nonzero" fill-opacity="1" /><path clip-path="url(#clip810)" d="M167.547 1176.58 L183.866 1176.58 L183.866 1180.52 L161.922 1180.52 L161.922 1176.58 Q164.584 1173.83 169.167 1169.2 Q173.774 1164.55 174.954 1163.2 Q177.2 1160.68 178.079 1158.94 Q178.982 1157.19 178.982 1155.5 Q178.982 1152.74 177.038 1151 Q175.116 1149.27 172.014 1149.27 Q169.815 1149.27 167.362 1150.03 Q164.931 1150.8 162.153 1152.35 L162.153 1147.62 Q164.977 1146.49 167.431 1145.91 Q169.885 1145.33 171.922 1145.33 Q177.292 1145.33 180.487 1148.02 Q183.681 1150.7 183.681 1155.19 Q183.681 1157.32 182.871 1159.25 Q182.084 1161.14 179.977 1163.74 Q179.399 1164.41 176.297 1167.62 Q173.195 1170.82 167.547 1176.58 Z" fill="#000000" fill-rule="nonzero" fill-opacity="1" /><path clip-path="url(#clip810)" d="M126.205 889.095 Q122.593 889.095 120.765 892.66 Q118.959 896.202 118.959 903.331 Q118.959 910.438 120.765 914.003 Q122.593 917.544 126.205 917.544 Q129.839 917.544 131.644 914.003 Q133.473 910.438 133.473 903.331 Q133.473 896.202 131.644 892.66 Q129.839 889.095 126.205 889.095 M126.205 885.392 Q132.015 885.392 135.07 889.998 Q138.149 894.582 138.149 903.331 Q138.149 912.058 135.07 916.665 Q132.015 921.248 126.205 921.248 Q120.394 921.248 117.316 916.665 Q114.26 912.058 114.26 903.331 Q114.26 894.582 117.316 889.998 Q120.394 885.392 126.205 885.392 Z" fill="#000000" fill-rule="nonzero" fill-opacity="1" /><path clip-path="url(#clip810)" d="M146.366 914.697 L151.251 914.697 L151.251 920.577 L146.366 920.577 L146.366 914.697 Z" fill="#000000" fill-rule="nonzero" fill-opacity="1" /><path clip-path="url(#clip810)" d="M174.283 890.091 L162.477 908.54 L174.283 908.54 L174.283 890.091 M173.056 886.017 L178.936 886.017 L178.936 908.54 L183.866 908.54 L183.866 912.429 L178.936 912.429 L178.936 920.577 L174.283 920.577 L174.283 912.429 L158.681 912.429 L158.681 907.915 L173.056 886.017 Z" fill="#000000" fill-rule="nonzero" fill-opacity="1" /><path clip-path="url(#clip810)" d="M126.529 629.154 Q122.918 629.154 121.089 632.719 Q119.283 636.26 119.283 643.39 Q119.283 650.496 121.089 654.061 Q122.918 657.603 126.529 657.603 Q130.163 657.603 131.968 654.061 Q133.797 650.496 133.797 643.39 Q133.797 636.26 131.968 632.719 Q130.163 629.154 126.529 629.154 M126.529 625.45 Q132.339 625.45 135.394 630.057 Q138.473 634.64 138.473 643.39 Q138.473 652.117 135.394 656.723 Q132.339 661.307 126.529 661.307 Q120.718 661.307 117.64 656.723 Q114.584 652.117 114.584 643.39 Q114.584 634.64 117.64 630.057 Q120.718 625.45 126.529 625.45 Z" fill="#000000" fill-rule="nonzero" fill-opacity="1" /><path clip-path="url(#clip810)" d="M146.691 654.756 L151.575 654.756 L151.575 660.635 L146.691 660.635 L146.691 654.756 Z" fill="#000000" fill-rule="nonzero" fill-opacity="1" /><path clip-path="url(#clip810)" d="M172.339 641.492 Q169.19 641.492 167.339 643.645 Q165.51 645.797 165.51 649.547 Q165.51 653.274 167.339 655.45 Q169.19 657.603 172.339 657.603 Q175.487 657.603 177.315 655.45 Q179.167 653.274 179.167 649.547 Q179.167 645.797 177.315 643.645 Q175.487 641.492 172.339 641.492 M181.621 626.839 L181.621 631.098 Q179.862 630.265 178.056 629.825 Q176.274 629.385 174.514 629.385 Q169.885 629.385 167.431 632.51 Q165.001 635.635 164.653 641.955 Q166.019 639.941 168.079 638.876 Q170.139 637.788 172.616 637.788 Q177.825 637.788 180.834 640.959 Q183.866 644.108 183.866 649.547 Q183.866 654.871 180.718 658.089 Q177.57 661.307 172.339 661.307 Q166.343 661.307 163.172 656.723 Q160.001 652.117 160.001 643.39 Q160.001 635.196 163.89 630.334 Q167.778 625.45 174.329 625.45 Q176.089 625.45 177.871 625.797 Q179.676 626.145 181.621 626.839 Z" fill="#000000" fill-rule="nonzero" fill-opacity="1" /><path clip-path="url(#clip810)" d="M126.783 369.212 Q123.172 369.212 121.343 372.777 Q119.538 376.319 119.538 383.448 Q119.538 390.555 121.343 394.12 Q123.172 397.661 126.783 397.661 Q130.417 397.661 132.223 394.12 Q134.052 390.555 134.052 383.448 Q134.052 376.319 132.223 372.777 Q130.417 369.212 126.783 369.212 M126.783 365.509 Q132.593 365.509 135.649 370.115 Q138.728 374.698 138.728 383.448 Q138.728 392.175 135.649 396.782 Q132.593 401.365 126.783 401.365 Q120.973 401.365 117.894 396.782 Q114.839 392.175 114.839 383.448 Q114.839 374.698 117.894 370.115 Q120.973 365.509 126.783 365.509 Z" fill="#000000" fill-rule="nonzero" fill-opacity="1" /><path clip-path="url(#clip810)" d="M146.945 394.814 L151.829 394.814 L151.829 400.694 L146.945 400.694 L146.945 394.814 Z" fill="#000000" fill-rule="nonzero" fill-opacity="1" /><path clip-path="url(#clip810)" d="M172.014 384.282 Q168.681 384.282 166.76 386.064 Q164.862 387.847 164.862 390.971 Q164.862 394.096 166.76 395.879 Q168.681 397.661 172.014 397.661 Q175.348 397.661 177.269 395.879 Q179.19 394.073 179.19 390.971 Q179.19 387.847 177.269 386.064 Q175.371 384.282 172.014 384.282 M167.339 382.291 Q164.329 381.55 162.64 379.49 Q160.973 377.43 160.973 374.467 Q160.973 370.323 163.913 367.916 Q166.876 365.509 172.014 365.509 Q177.176 365.509 180.116 367.916 Q183.056 370.323 183.056 374.467 Q183.056 377.43 181.366 379.49 Q179.7 381.55 176.714 382.291 Q180.093 383.078 181.968 385.37 Q183.866 387.661 183.866 390.971 Q183.866 395.995 180.788 398.68 Q177.732 401.365 172.014 401.365 Q166.297 401.365 163.218 398.68 Q160.163 395.995 160.163 390.971 Q160.163 387.661 162.061 385.37 Q163.959 383.078 167.339 382.291 M165.626 374.907 Q165.626 377.592 167.292 379.097 Q168.982 380.601 172.014 380.601 Q175.024 380.601 176.714 379.097 Q178.426 377.592 178.426 374.907 Q178.426 372.222 176.714 370.717 Q175.024 369.212 172.014 369.212 Q168.982 369.212 167.292 370.717 Q165.626 372.222 165.626 374.907 Z" fill="#000000" fill-rule="nonzero" fill-opacity="1" /><path clip-path="url(#clip810)" d="M117.501 136.817 L125.14 136.817 L125.14 110.451 L116.83 112.118 L116.83 107.859 L125.093 106.192 L129.769 106.192 L129.769 136.817 L137.408 136.817 L137.408 140.752 L117.501 140.752 L117.501 136.817 Z" fill="#000000" fill-rule="nonzero" fill-opacity="1" /><path clip-path="url(#clip810)" d="M146.853 134.873 L151.737 134.873 L151.737 140.752 L146.853 140.752 L146.853 134.873 Z" fill="#000000" fill-rule="nonzero" fill-opacity="1" /><path clip-path="url(#clip810)" d="M171.922 109.271 Q168.311 109.271 166.482 112.836 Q164.677 116.377 164.677 123.507 Q164.677 130.613 166.482 134.178 Q168.311 137.72 171.922 137.72 Q175.556 137.72 177.362 134.178 Q179.19 130.613 179.19 123.507 Q179.19 116.377 177.362 112.836 Q175.556 109.271 171.922 109.271 M171.922 105.567 Q177.732 105.567 180.788 110.174 Q183.866 114.757 183.866 123.507 Q183.866 132.234 180.788 136.84 Q177.732 141.423 171.922 141.423 Q166.112 141.423 163.033 136.84 Q159.978 132.234 159.978 123.507 Q159.978 114.757 163.033 110.174 Q166.112 105.567 171.922 105.567 Z" fill="#000000" fill-rule="nonzero" fill-opacity="1" /><path clip-path="url(#clip810)" d="M16.4842 937.529 L16.4842 910.221 L21.895 910.221 L21.895 931.1 L35.8996 931.1 L35.8996 912.258 L41.3104 912.258 L41.3104 931.1 L64.0042 931.1 L64.0042 937.529 L16.4842 937.529 Z" fill="#000000" fill-rule="nonzero" fill-opacity="1" /><path clip-path="url(#clip810)" d="M33.8307 884.376 Q33.2578 885.362 33.0032 886.54 Q32.7167 887.686 32.7167 889.086 Q32.7167 894.052 35.9632 896.725 Q39.1779 899.367 45.2253 899.367 L64.0042 899.367 L64.0042 905.255 L28.3562 905.255 L28.3562 899.367 L33.8944 899.367 Q30.6479 897.521 29.0883 894.561 Q27.4968 891.601 27.4968 887.368 Q27.4968 886.763 27.5923 886.031 Q27.656 885.299 27.8151 884.408 L33.8307 884.376 Z" fill="#000000" fill-rule="nonzero" fill-opacity="1" /><path clip-path="url(#clip810)" d="M44.7161 849.173 L47.5806 849.173 L47.5806 876.1 Q53.6281 875.718 56.8109 872.472 Q59.9619 869.194 59.9619 863.369 Q59.9619 859.995 59.1344 856.844 Q58.3069 853.661 56.6518 850.542 L62.1899 850.542 Q63.5267 853.693 64.227 857.003 Q64.9272 860.313 64.9272 863.719 Q64.9272 872.249 59.9619 877.246 Q54.9967 882.211 46.5303 882.211 Q37.7774 882.211 32.6531 877.501 Q27.4968 872.758 27.4968 864.738 Q27.4968 857.544 32.1438 853.375 Q36.7589 849.173 44.7161 849.173 M42.9973 855.03 Q38.1912 855.093 35.3266 857.735 Q32.4621 860.345 32.4621 864.674 Q32.4621 869.575 35.2312 872.536 Q38.0002 875.464 43.0292 875.909 L42.9973 855.03 Z" fill="#000000" fill-rule="nonzero" fill-opacity="1" /><path clip-path="url(#clip810)" d="M46.212 836.06 Q52.6732 836.06 56.3653 833.418 Q60.0256 830.745 60.0256 826.098 Q60.0256 821.451 56.3653 818.777 Q52.6732 816.104 46.212 816.104 Q39.7508 816.104 36.0905 818.777 Q32.3984 821.451 32.3984 826.098 Q32.3984 830.745 36.0905 833.418 Q39.7508 836.06 46.212 836.06 M58.657 816.104 Q61.8398 817.95 63.3994 820.782 Q64.9272 823.583 64.9272 827.53 Q64.9272 833.991 59.771 838.065 Q54.6147 842.107 46.212 842.107 Q37.8093 842.107 32.6531 838.065 Q27.4968 833.991 27.4968 827.53 Q27.4968 823.583 29.0564 820.782 Q30.5842 817.95 33.7671 816.104 L28.3562 816.104 L28.3562 810.247 L77.5631 810.247 L77.5631 816.104 L58.657 816.104 Z" fill="#000000" fill-rule="nonzero" fill-opacity="1" /><path clip-path="url(#clip810)" d="M49.9359 798.789 L28.3562 798.789 L28.3562 792.932 L49.7131 792.932 Q54.7739 792.932 57.3202 790.959 Q59.8346 788.986 59.8346 785.039 Q59.8346 780.296 56.8109 777.559 Q53.7872 774.79 48.5673 774.79 L28.3562 774.79 L28.3562 768.934 L64.0042 768.934 L64.0042 774.79 L58.5296 774.79 Q61.7762 776.923 63.3676 779.755 Q64.9272 782.556 64.9272 786.28 Q64.9272 792.423 61.1078 795.606 Q57.2883 798.789 49.9359 798.789 M27.4968 784.052 L27.4968 784.052 Z" fill="#000000" fill-rule="nonzero" fill-opacity="1" /><path clip-path="url(#clip810)" d="M44.7161 726.379 L47.5806 726.379 L47.5806 753.306 Q53.6281 752.924 56.8109 749.677 Q59.9619 746.399 59.9619 740.574 Q59.9619 737.201 59.1344 734.05 Q58.3069 730.867 56.6518 727.748 L62.1899 727.748 Q63.5267 730.899 64.227 734.209 Q64.9272 737.519 64.9272 740.925 Q64.9272 749.455 59.9619 754.452 Q54.9967 759.417 46.5303 759.417 Q37.7774 759.417 32.6531 754.706 Q27.4968 749.964 27.4968 741.943 Q27.4968 734.75 32.1438 730.58 Q36.7589 726.379 44.7161 726.379 M42.9973 732.235 Q38.1912 732.299 35.3266 734.941 Q32.4621 737.551 32.4621 741.879 Q32.4621 746.781 35.2312 749.741 Q38.0002 752.669 43.0292 753.115 L42.9973 732.235 Z" fill="#000000" fill-rule="nonzero" fill-opacity="1" /><path clip-path="url(#clip810)" d="M42.4881 687.134 L64.0042 687.134 L64.0042 692.991 L42.679 692.991 Q37.6183 692.991 35.1038 694.964 Q32.5894 696.938 32.5894 700.884 Q32.5894 705.627 35.6131 708.364 Q38.6368 711.101 43.8567 711.101 L64.0042 711.101 L64.0042 716.989 L28.3562 716.989 L28.3562 711.101 L33.8944 711.101 Q30.6797 709.001 29.0883 706.168 Q27.4968 703.303 27.4968 699.579 Q27.4968 693.436 31.3163 690.285 Q35.1038 687.134 42.4881 687.134 Z" fill="#000000" fill-rule="nonzero" fill-opacity="1" /><path clip-path="url(#clip810)" d="M29.7248 649.799 L35.1993 649.799 Q33.8307 652.282 33.1623 654.797 Q32.4621 657.279 32.4621 659.825 Q32.4621 665.523 36.0905 668.674 Q39.6872 671.825 46.212 671.825 Q52.7369 671.825 56.3653 668.674 Q59.9619 665.523 59.9619 659.825 Q59.9619 657.279 59.2935 654.797 Q58.5933 652.282 57.2247 649.799 L62.6355 649.799 Q63.7814 652.25 64.3543 654.892 Q64.9272 657.502 64.9272 660.462 Q64.9272 668.515 59.8664 673.257 Q54.8057 678 46.212 678 Q37.491 678 32.4939 673.225 Q27.4968 668.419 27.4968 660.08 Q27.4968 657.375 28.0697 654.797 Q28.6108 652.218 29.7248 649.799 Z" fill="#000000" fill-rule="nonzero" fill-opacity="1" /><path clip-path="url(#clip810)" d="M67.3143 624.782 Q73.68 627.265 75.6216 629.62 Q77.5631 631.975 77.5631 635.922 L77.5631 640.601 L72.6615 640.601 L72.6615 637.164 Q72.6615 634.745 71.5157 633.408 Q70.3699 632.071 66.1048 630.448 L63.4312 629.397 L28.3562 643.816 L28.3562 637.609 L56.238 626.469 L28.3562 615.329 L28.3562 609.123 L67.3143 624.782 Z" fill="#000000" fill-rule="nonzero" fill-opacity="1" /><path clip-path="url(#clip810)" d="M502.846 43.6931 L502.846 65.8515 L515.971 65.8515 Q522.574 65.8515 525.734 63.1374 Q528.934 60.3828 528.934 54.752 Q528.934 49.0808 525.734 46.4072 Q522.574 43.6931 515.971 43.6931 L502.846 43.6931 M502.846 18.8205 L502.846 37.0496 L514.958 37.0496 Q520.953 37.0496 523.87 34.8216 Q526.827 32.5531 526.827 27.935 Q526.827 23.3575 523.87 21.089 Q520.953 18.8205 514.958 18.8205 L502.846 18.8205 M494.663 12.096 L515.566 12.096 Q524.923 12.096 529.987 15.9849 Q535.051 19.8737 535.051 27.0438 Q535.051 32.5936 532.458 35.8748 Q529.865 39.156 524.842 39.9662 Q530.878 41.2625 534.2 45.3944 Q537.562 49.4858 537.562 55.6432 Q537.562 63.745 532.053 68.1605 Q526.544 72.576 516.376 72.576 L494.663 72.576 L494.663 12.096 Z" fill="#000000" fill-rule="nonzero" fill-opacity="1" /><path clip-path="url(#clip810)" d="M571.873 49.7694 Q562.84 49.7694 559.356 51.8354 Q555.872 53.9013 555.872 58.8839 Q555.872 62.8538 558.465 65.2034 Q561.098 67.5124 565.594 67.5124 Q571.792 67.5124 575.519 63.1374 Q579.287 58.7219 579.287 51.4303 L579.287 49.7694 L571.873 49.7694 M586.74 46.6907 L586.74 72.576 L579.287 72.576 L579.287 65.6895 Q576.734 69.8214 572.927 71.8063 Q569.119 73.7508 563.61 73.7508 Q556.642 73.7508 552.51 69.8619 Q548.419 65.9325 548.419 59.3701 Q548.419 51.7138 553.523 47.825 Q558.667 43.9361 568.835 43.9361 L579.287 43.9361 L579.287 43.2069 Q579.287 38.0623 575.884 35.2672 Q572.522 32.4315 566.405 32.4315 Q562.516 32.4315 558.829 33.3632 Q555.143 34.295 551.74 36.1584 L551.74 29.2718 Q555.832 27.692 559.68 26.9223 Q563.529 26.1121 567.174 26.1121 Q577.018 26.1121 581.879 31.2163 Q586.74 36.3204 586.74 46.6907 Z" fill="#000000" fill-rule="nonzero" fill-opacity="1" /><path clip-path="url(#clip810)" d="M628.383 34.1734 Q627.128 33.4443 625.629 33.1202 Q624.171 32.7556 622.388 32.7556 Q616.069 32.7556 612.666 36.8875 Q609.304 40.9789 609.304 48.6757 L609.304 72.576 L601.81 72.576 L601.81 27.2059 L609.304 27.2059 L609.304 34.2544 Q611.653 30.1225 615.421 28.1376 Q619.188 26.1121 624.576 26.1121 Q625.345 26.1121 626.277 26.2337 Q627.209 26.3147 628.343 26.5172 L628.383 34.1734 Z" fill="#000000" fill-rule="nonzero" fill-opacity="1" /><path clip-path="url(#clip810)" d="M708.186 16.7545 L708.186 25.383 Q704.054 21.5346 699.355 19.6307 Q694.697 17.7268 689.431 17.7268 Q679.06 17.7268 673.551 24.0867 Q668.042 30.4061 668.042 42.3968 Q668.042 54.3469 673.551 60.7069 Q679.06 67.0263 689.431 67.0263 Q694.697 67.0263 699.355 65.1223 Q704.054 63.2184 708.186 59.3701 L708.186 67.9175 Q703.892 70.8341 699.072 72.2924 Q694.292 73.7508 688.944 73.7508 Q675.212 73.7508 667.313 65.3654 Q659.413 56.9395 659.413 42.3968 Q659.413 27.8135 667.313 19.4281 Q675.212 11.0023 688.944 11.0023 Q694.373 11.0023 699.153 12.4606 Q703.973 13.8784 708.186 16.7545 Z" fill="#000000" fill-rule="nonzero" fill-opacity="1" /><path clip-path="url(#clip810)" d="M758.215 45.1919 L758.215 72.576 L750.761 72.576 L750.761 45.4349 Q750.761 38.994 748.25 35.7938 Q745.738 32.5936 740.715 32.5936 Q734.679 32.5936 731.195 36.4419 Q727.712 40.2903 727.712 46.9338 L727.712 72.576 L720.217 72.576 L720.217 9.54393 L727.712 9.54393 L727.712 34.2544 Q730.385 30.163 733.991 28.1376 Q737.636 26.1121 742.376 26.1121 Q750.194 26.1121 754.205 30.9732 Q758.215 35.7938 758.215 45.1919 Z" fill="#000000" fill-rule="nonzero" fill-opacity="1" /><path clip-path="url(#clip810)" d="M793.701 49.7694 Q784.667 49.7694 781.184 51.8354 Q777.7 53.9013 777.7 58.8839 Q777.7 62.8538 780.292 65.2034 Q782.925 67.5124 787.422 67.5124 Q793.62 67.5124 797.347 63.1374 Q801.114 58.7219 801.114 51.4303 L801.114 49.7694 L793.701 49.7694 M808.568 46.6907 L808.568 72.576 L801.114 72.576 L801.114 65.6895 Q798.562 69.8214 794.754 71.8063 Q790.946 73.7508 785.437 73.7508 Q778.469 73.7508 774.338 69.8619 Q770.246 65.9325 770.246 59.3701 Q770.246 51.7138 775.35 47.825 Q780.495 43.9361 790.663 43.9361 L801.114 43.9361 L801.114 43.2069 Q801.114 38.0623 797.711 35.2672 Q794.349 32.4315 788.232 32.4315 Q784.343 32.4315 780.657 33.3632 Q776.971 34.295 773.568 36.1584 L773.568 29.2718 Q777.659 27.692 781.508 26.9223 Q785.356 26.1121 789.002 26.1121 Q798.846 26.1121 803.707 31.2163 Q808.568 36.3204 808.568 46.6907 Z" fill="#000000" fill-rule="nonzero" fill-opacity="1" /><path clip-path="url(#clip810)" d="M850.211 34.1734 Q848.955 33.4443 847.456 33.1202 Q845.998 32.7556 844.216 32.7556 Q837.896 32.7556 834.493 36.8875 Q831.131 40.9789 831.131 48.6757 L831.131 72.576 L823.637 72.576 L823.637 27.2059 L831.131 27.2059 L831.131 34.2544 Q833.481 30.1225 837.248 28.1376 Q841.015 26.1121 846.403 26.1121 Q847.173 26.1121 848.105 26.2337 Q849.036 26.3147 850.17 26.5172 L850.211 34.1734 Z" fill="#000000" fill-rule="nonzero" fill-opacity="1" /><path clip-path="url(#clip810)" d="M865.402 14.324 L865.402 27.2059 L880.755 27.2059 L880.755 32.9987 L865.402 32.9987 L865.402 57.6282 Q865.402 63.1779 866.901 64.7578 Q868.44 66.3376 873.099 66.3376 L880.755 66.3376 L880.755 72.576 L873.099 72.576 Q864.47 72.576 861.189 69.3758 Q857.908 66.1351 857.908 57.6282 L857.908 32.9987 L852.439 32.9987 L852.439 27.2059 L857.908 27.2059 L857.908 14.324 L865.402 14.324 Z" fill="#000000" fill-rule="nonzero" fill-opacity="1" /><path clip-path="url(#clip810)" d="M934.51 32.4315 Q928.515 32.4315 925.031 37.1306 Q921.547 41.7891 921.547 49.9314 Q921.547 58.0738 924.991 62.7728 Q928.474 67.4314 934.51 67.4314 Q940.465 67.4314 943.949 62.7323 Q947.433 58.0333 947.433 49.9314 Q947.433 41.8701 943.949 37.1711 Q940.465 32.4315 934.51 32.4315 M934.51 26.1121 Q944.232 26.1121 949.782 32.4315 Q955.332 38.7509 955.332 49.9314 Q955.332 61.0714 949.782 67.4314 Q944.232 73.7508 934.51 73.7508 Q924.748 73.7508 919.198 67.4314 Q913.689 61.0714 913.689 49.9314 Q913.689 38.7509 919.198 32.4315 Q924.748 26.1121 934.51 26.1121 Z" fill="#000000" fill-rule="nonzero" fill-opacity="1" /><path clip-path="url(#clip810)" d="M990.656 9.54393 L990.656 15.7418 L983.526 15.7418 Q979.516 15.7418 977.936 17.3622 Q976.397 18.9825 976.397 23.1955 L976.397 27.2059 L988.671 27.2059 L988.671 32.9987 L976.397 32.9987 L976.397 72.576 L968.902 72.576 L968.902 32.9987 L961.773 32.9987 L961.773 27.2059 L968.902 27.2059 L968.902 24.0462 Q968.902 16.471 972.427 13.0277 Q975.951 9.54393 983.607 9.54393 L990.656 9.54393 Z" fill="#000000" fill-rule="nonzero" fill-opacity="1" /><path clip-path="url(#clip810)" d="M1023.59 12.096 L1031.77 12.096 L1031.77 72.576 L1023.59 72.576 L1023.59 12.096 Z" fill="#000000" fill-rule="nonzero" fill-opacity="1" /><path clip-path="url(#clip810)" d="M1085.45 45.1919 L1085.45 72.576 L1077.99 72.576 L1077.99 45.4349 Q1077.99 38.994 1075.48 35.7938 Q1072.97 32.5936 1067.95 32.5936 Q1061.91 32.5936 1058.43 36.4419 Q1054.94 40.2903 1054.94 46.9338 L1054.94 72.576 L1047.45 72.576 L1047.45 27.2059 L1054.94 27.2059 L1054.94 34.2544 Q1057.62 30.163 1061.22 28.1376 Q1064.87 26.1121 1069.61 26.1121 Q1077.43 26.1121 1081.44 30.9732 Q1085.45 35.7938 1085.45 45.1919 Z" fill="#000000" fill-rule="nonzero" fill-opacity="1" /><path clip-path="url(#clip810)" d="M1107.69 14.324 L1107.69 27.2059 L1123.04 27.2059 L1123.04 32.9987 L1107.69 32.9987 L1107.69 57.6282 Q1107.69 63.1779 1109.19 64.7578 Q1110.72 66.3376 1115.38 66.3376 L1123.04 66.3376 L1123.04 72.576 L1115.38 72.576 Q1106.75 72.576 1103.47 69.3758 Q1100.19 66.1351 1100.19 57.6282 L1100.19 32.9987 L1094.72 32.9987 L1094.72 27.2059 L1100.19 27.2059 L1100.19 14.324 L1107.69 14.324 Z" fill="#000000" fill-rule="nonzero" fill-opacity="1" /><path clip-path="url(#clip810)" d="M1171.65 48.0275 L1171.65 51.6733 L1137.38 51.6733 Q1137.87 59.3701 1142 63.421 Q1146.17 67.4314 1153.58 67.4314 Q1157.88 67.4314 1161.89 66.3781 Q1165.94 65.3249 1169.91 63.2184 L1169.91 70.267 Q1165.9 71.9684 1161.69 72.8596 Q1157.47 73.7508 1153.14 73.7508 Q1142.28 73.7508 1135.92 67.4314 Q1129.6 61.1119 1129.6 50.3365 Q1129.6 39.1965 1135.6 32.6746 Q1141.63 26.1121 1151.84 26.1121 Q1161 26.1121 1166.3 32.0264 Q1171.65 37.9003 1171.65 48.0275 M1164.2 45.84 Q1164.12 39.7232 1160.75 36.0774 Q1157.43 32.4315 1151.92 32.4315 Q1145.68 32.4315 1141.92 35.9558 Q1138.19 39.4801 1137.62 45.8805 L1164.2 45.84 Z" fill="#000000" fill-rule="nonzero" fill-opacity="1" /><path clip-path="url(#clip810)" d="M1210.17 34.1734 Q1208.92 33.4443 1207.42 33.1202 Q1205.96 32.7556 1204.18 32.7556 Q1197.86 32.7556 1194.46 36.8875 Q1191.09 40.9789 1191.09 48.6757 L1191.09 72.576 L1183.6 72.576 L1183.6 27.2059 L1191.09 27.2059 L1191.09 34.2544 Q1193.44 30.1225 1197.21 28.1376 Q1200.98 26.1121 1206.37 26.1121 Q1207.14 26.1121 1208.07 26.2337 Q1209 26.3147 1210.13 26.5172 L1210.17 34.1734 Z" fill="#000000" fill-rule="nonzero" fill-opacity="1" /><path clip-path="url(#clip810)" d="M1212.65 27.2059 L1220.54 27.2059 L1234.72 65.2844 L1248.9 27.2059 L1256.8 27.2059 L1239.79 72.576 L1229.66 72.576 L1212.65 27.2059 Z" fill="#000000" fill-rule="nonzero" fill-opacity="1" /><path clip-path="url(#clip810)" d="M1287.71 49.7694 Q1278.68 49.7694 1275.19 51.8354 Q1271.71 53.9013 1271.71 58.8839 Q1271.71 62.8538 1274.3 65.2034 Q1276.93 67.5124 1281.43 67.5124 Q1287.63 67.5124 1291.35 63.1374 Q1295.12 58.7219 1295.12 51.4303 L1295.12 49.7694 L1287.71 49.7694 M1302.58 46.6907 L1302.58 72.576 L1295.12 72.576 L1295.12 65.6895 Q1292.57 69.8214 1288.76 71.8063 Q1284.95 73.7508 1279.44 73.7508 Q1272.48 73.7508 1268.35 69.8619 Q1264.25 65.9325 1264.25 59.3701 Q1264.25 51.7138 1269.36 47.825 Q1274.5 43.9361 1284.67 43.9361 L1295.12 43.9361 L1295.12 43.2069 Q1295.12 38.0623 1291.72 35.2672 Q1288.36 32.4315 1282.24 32.4315 Q1278.35 32.4315 1274.66 33.3632 Q1270.98 34.295 1267.58 36.1584 L1267.58 29.2718 Q1271.67 27.692 1275.52 26.9223 Q1279.36 26.1121 1283.01 26.1121 Q1292.85 26.1121 1297.71 31.2163 Q1302.58 36.3204 1302.58 46.6907 Z" fill="#000000" fill-rule="nonzero" fill-opacity="1" /><path clip-path="url(#clip810)" d="M1317.93 9.54393 L1325.38 9.54393 L1325.38 72.576 L1317.93 72.576 L1317.93 9.54393 Z" fill="#000000" fill-rule="nonzero" fill-opacity="1" /><path clip-path="url(#clip810)" d="M1369.9 28.5427 L1369.9 35.5912 Q1366.74 33.9709 1363.34 33.1607 Q1359.94 32.3505 1356.29 32.3505 Q1350.74 32.3505 1347.95 34.0519 Q1345.19 35.7533 1345.19 39.156 Q1345.19 41.7486 1347.18 43.2475 Q1349.16 44.7058 1355.16 46.0426 L1357.71 46.6097 Q1365.65 48.3111 1368.97 51.4303 Q1372.33 54.509 1372.33 60.0587 Q1372.33 66.3781 1367.31 70.0644 Q1362.33 73.7508 1353.58 73.7508 Q1349.93 73.7508 1345.96 73.0216 Q1342.03 72.3329 1337.66 70.9151 L1337.66 63.2184 Q1341.79 65.3654 1345.8 66.4591 Q1349.81 67.5124 1353.74 67.5124 Q1359 67.5124 1361.84 65.73 Q1364.68 63.9071 1364.68 60.6258 Q1364.68 57.5877 1362.61 55.9673 Q1360.58 54.3469 1353.66 52.8481 L1351.06 52.2405 Q1344.14 50.7821 1341.06 47.7845 Q1337.98 44.7463 1337.98 39.4801 Q1337.98 33.0797 1342.52 29.5959 Q1347.05 26.1121 1355.4 26.1121 Q1359.53 26.1121 1363.18 26.7198 Q1366.82 27.3274 1369.9 28.5427 Z" fill="#000000" fill-rule="nonzero" fill-opacity="1" /><path clip-path="url(#clip810)" d="M1431.19 49.7694 Q1422.16 49.7694 1418.67 51.8354 Q1415.19 53.9013 1415.19 58.8839 Q1415.19 62.8538 1417.78 65.2034 Q1420.42 67.5124 1424.91 67.5124 Q1431.11 67.5124 1434.84 63.1374 Q1438.6 58.7219 1438.6 51.4303 L1438.6 49.7694 L1431.19 49.7694 M1446.06 46.6907 L1446.06 72.576 L1438.6 72.576 L1438.6 65.6895 Q1436.05 69.8214 1432.24 71.8063 Q1428.44 73.7508 1422.93 73.7508 Q1415.96 73.7508 1411.83 69.8619 Q1407.74 65.9325 1407.74 59.3701 Q1407.74 51.7138 1412.84 47.825 Q1417.99 43.9361 1428.15 43.9361 L1438.6 43.9361 L1438.6 43.2069 Q1438.6 38.0623 1435.2 35.2672 Q1431.84 32.4315 1425.72 32.4315 Q1421.83 32.4315 1418.15 33.3632 Q1414.46 34.295 1411.06 36.1584 L1411.06 29.2718 Q1415.15 27.692 1419 26.9223 Q1422.85 26.1121 1426.49 26.1121 Q1436.34 26.1121 1441.2 31.2163 Q1446.06 36.3204 1446.06 46.6907 Z" fill="#000000" fill-rule="nonzero" fill-opacity="1" /><path clip-path="url(#clip810)" d="M1499.13 45.1919 L1499.13 72.576 L1491.67 72.576 L1491.67 45.4349 Q1491.67 38.994 1489.16 35.7938 Q1486.65 32.5936 1481.63 32.5936 Q1475.59 32.5936 1472.11 36.4419 Q1468.62 40.2903 1468.62 46.9338 L1468.62 72.576 L1461.13 72.576 L1461.13 27.2059 L1468.62 27.2059 L1468.62 34.2544 Q1471.3 30.163 1474.9 28.1376 Q1478.55 26.1121 1483.29 26.1121 Q1491.1 26.1121 1495.11 30.9732 Q1499.13 35.7938 1499.13 45.1919 Z" fill="#000000" fill-rule="nonzero" fill-opacity="1" /><path clip-path="url(#clip810)" d="M1543.85 34.0924 L1543.85 9.54393 L1551.3 9.54393 L1551.3 72.576 L1543.85 72.576 L1543.85 65.7705 Q1541.5 69.8214 1537.89 71.8063 Q1534.33 73.7508 1529.3 73.7508 Q1521.08 73.7508 1515.9 67.1883 Q1510.75 60.6258 1510.75 49.9314 Q1510.75 39.2371 1515.9 32.6746 Q1521.08 26.1121 1529.3 26.1121 Q1534.33 26.1121 1537.89 28.0971 Q1541.5 30.0415 1543.85 34.0924 M1518.45 49.9314 Q1518.45 58.1548 1521.81 62.8538 Q1525.21 67.5124 1531.13 67.5124 Q1537.04 67.5124 1540.44 62.8538 Q1543.85 58.1548 1543.85 49.9314 Q1543.85 41.7081 1540.44 37.0496 Q1537.04 32.3505 1531.13 32.3505 Q1525.21 32.3505 1521.81 37.0496 Q1518.45 41.7081 1518.45 49.9314 Z" fill="#000000" fill-rule="nonzero" fill-opacity="1" /><path clip-path="url(#clip810)" d="M1593.35 12.096 L1628.11 12.096 L1628.11 18.9825 L1601.53 18.9825 L1601.53 36.8065 L1625.51 36.8065 L1625.51 43.6931 L1601.53 43.6931 L1601.53 72.576 L1593.35 72.576 L1593.35 12.096 Z" fill="#000000" fill-rule="nonzero" fill-opacity="1" /><path clip-path="url(#clip810)" d="M1661 34.1734 Q1659.74 33.4443 1658.24 33.1202 Q1656.79 32.7556 1655 32.7556 Q1648.68 32.7556 1645.28 36.8875 Q1641.92 40.9789 1641.92 48.6757 L1641.92 72.576 L1634.43 72.576 L1634.43 27.2059 L1641.92 27.2059 L1641.92 34.2544 Q1644.27 30.1225 1648.04 28.1376 Q1651.8 26.1121 1657.19 26.1121 Q1657.96 26.1121 1658.89 26.2337 Q1659.82 26.3147 1660.96 26.5172 L1661 34.1734 Z" fill="#000000" fill-rule="nonzero" fill-opacity="1" /><path clip-path="url(#clip810)" d="M1705.8 48.0275 L1705.8 51.6733 L1671.53 51.6733 Q1672.02 59.3701 1676.15 63.421 Q1680.32 67.4314 1687.74 67.4314 Q1692.03 67.4314 1696.04 66.3781 Q1700.09 65.3249 1704.06 63.2184 L1704.06 70.267 Q1700.05 71.9684 1695.84 72.8596 Q1691.62 73.7508 1687.29 73.7508 Q1676.43 73.7508 1670.07 67.4314 Q1663.75 61.1119 1663.75 50.3365 Q1663.75 39.1965 1669.75 32.6746 Q1675.79 26.1121 1685.99 26.1121 Q1695.15 26.1121 1700.46 32.0264 Q1705.8 37.9003 1705.8 48.0275 M1698.35 45.84 Q1698.27 39.7232 1694.91 36.0774 Q1691.58 32.4315 1686.07 32.4315 Q1679.84 32.4315 1676.07 35.9558 Q1672.34 39.4801 1671.77 45.8805 L1698.35 45.84 Z" fill="#000000" fill-rule="nonzero" fill-opacity="1" /><path clip-path="url(#clip810)" d="M1722.49 49.9314 Q1722.49 58.1548 1725.85 62.8538 Q1729.26 67.5124 1735.17 67.5124 Q1741.09 67.5124 1744.49 62.8538 Q1747.89 58.1548 1747.89 49.9314 Q1747.89 41.7081 1744.49 37.0496 Q1741.09 32.3505 1735.17 32.3505 Q1729.26 32.3505 1725.85 37.0496 Q1722.49 41.7081 1722.49 49.9314 M1747.89 65.7705 Q1745.54 69.8214 1741.94 71.8063 Q1738.37 73.7508 1733.35 73.7508 Q1725.13 73.7508 1719.94 67.1883 Q1714.8 60.6258 1714.8 49.9314 Q1714.8 39.2371 1719.94 32.6746 Q1725.13 26.1121 1733.35 26.1121 Q1738.37 26.1121 1741.94 28.0971 Q1745.54 30.0415 1747.89 34.0924 L1747.89 27.2059 L1755.35 27.2059 L1755.35 89.8329 L1747.89 89.8329 L1747.89 65.7705 Z" fill="#000000" fill-rule="nonzero" fill-opacity="1" /><path clip-path="url(#clip810)" d="M1769.93 54.671 L1769.93 27.2059 L1777.38 27.2059 L1777.38 54.3874 Q1777.38 60.8284 1779.89 64.0691 Q1782.41 67.2693 1787.43 67.2693 Q1793.46 67.2693 1796.95 63.421 Q1800.47 59.5726 1800.47 52.9291 L1800.47 27.2059 L1807.93 27.2059 L1807.93 72.576 L1800.47 72.576 L1800.47 65.6084 Q1797.76 69.7404 1794.15 71.7658 Q1790.59 73.7508 1785.85 73.7508 Q1778.03 73.7508 1773.98 68.8897 Q1769.93 64.0286 1769.93 54.671 M1788.68 26.1121 L1788.68 26.1121 Z" fill="#000000" fill-rule="nonzero" fill-opacity="1" /><path clip-path="url(#clip810)" d="M1862.09 48.0275 L1862.09 51.6733 L1827.82 51.6733 Q1828.3 59.3701 1832.43 63.421 Q1836.61 67.4314 1844.02 67.4314 Q1848.31 67.4314 1852.32 66.3781 Q1856.37 65.3249 1860.34 63.2184 L1860.34 70.267 Q1856.33 71.9684 1852.12 72.8596 Q1847.91 73.7508 1843.57 73.7508 Q1832.72 73.7508 1826.36 67.4314 Q1820.04 61.1119 1820.04 50.3365 Q1820.04 39.1965 1826.03 32.6746 Q1832.07 26.1121 1842.28 26.1121 Q1851.43 26.1121 1856.74 32.0264 Q1862.09 37.9003 1862.09 48.0275 M1854.63 45.84 Q1854.55 39.7232 1851.19 36.0774 Q1847.87 32.4315 1842.36 32.4315 Q1836.12 32.4315 1832.35 35.9558 Q1828.63 39.4801 1828.06 45.8805 L1854.63 45.84 Z" fill="#000000" fill-rule="nonzero" fill-opacity="1" /><path clip-path="url(#clip810)" d="M1912.03 45.1919 L1912.03 72.576 L1904.58 72.576 L1904.58 45.4349 Q1904.58 38.994 1902.07 35.7938 Q1899.56 32.5936 1894.53 32.5936 Q1888.5 32.5936 1885.01 36.4419 Q1881.53 40.2903 1881.53 46.9338 L1881.53 72.576 L1874.04 72.576 L1874.04 27.2059 L1881.53 27.2059 L1881.53 34.2544 Q1884.2 30.163 1887.81 28.1376 Q1891.46 26.1121 1896.19 26.1121 Q1904.01 26.1121 1908.02 30.9732 Q1912.03 35.7938 1912.03 45.1919 Z" fill="#000000" fill-rule="nonzero" fill-opacity="1" /><path clip-path="url(#clip810)" d="M1959.55 28.9478 L1959.55 35.9153 Q1956.39 34.1734 1953.19 33.3227 Q1950.03 32.4315 1946.79 32.4315 Q1939.54 32.4315 1935.53 37.0496 Q1931.52 41.6271 1931.52 49.9314 Q1931.52 58.2358 1935.53 62.8538 Q1939.54 67.4314 1946.79 67.4314 Q1950.03 67.4314 1953.19 66.5807 Q1956.39 65.6895 1959.55 63.9476 L1959.55 70.8341 Q1956.43 72.2924 1953.07 73.0216 Q1949.75 73.7508 1945.98 73.7508 Q1935.73 73.7508 1929.7 67.3098 Q1923.66 60.8689 1923.66 49.9314 Q1923.66 38.832 1929.74 32.472 Q1935.85 26.1121 1946.47 26.1121 Q1949.91 26.1121 1953.19 26.8413 Q1956.47 27.5299 1959.55 28.9478 Z" fill="#000000" fill-rule="nonzero" fill-opacity="1" /><path clip-path="url(#clip810)" d="M1972.51 27.2059 L1979.97 27.2059 L1979.97 72.576 L1972.51 72.576 L1972.51 27.2059 M1972.51 9.54393 L1979.97 9.54393 L1979.97 18.9825 L1972.51 18.9825 L1972.51 9.54393 Z" fill="#000000" fill-rule="nonzero" fill-opacity="1" /><path clip-path="url(#clip810)" d="M2034.37 48.0275 L2034.37 51.6733 L2000.1 51.6733 Q2000.59 59.3701 2004.72 63.421 Q2008.89 67.4314 2016.3 67.4314 Q2020.6 67.4314 2024.61 66.3781 Q2028.66 65.3249 2032.63 63.2184 L2032.63 70.267 Q2028.62 71.9684 2024.41 72.8596 Q2020.19 73.7508 2015.86 73.7508 Q2005 73.7508 1998.64 67.4314 Q1992.32 61.1119 1992.32 50.3365 Q1992.32 39.1965 1998.32 32.6746 Q2004.35 26.1121 2014.56 26.1121 Q2023.72 26.1121 2029.02 32.0264 Q2034.37 37.9003 2034.37 48.0275 M2026.92 45.84 Q2026.84 39.7232 2023.47 36.0774 Q2020.15 32.4315 2014.64 32.4315 Q2008.41 32.4315 2004.64 35.9558 Q2000.91 39.4801 2000.34 45.8805 L2026.92 45.84 Z" fill="#000000" fill-rule="nonzero" fill-opacity="1" /><path clip-path="url(#clip810)" d="M2075.53 28.5427 L2075.53 35.5912 Q2072.37 33.9709 2068.97 33.1607 Q2065.56 32.3505 2061.92 32.3505 Q2056.37 32.3505 2053.57 34.0519 Q2050.82 35.7533 2050.82 39.156 Q2050.82 41.7486 2052.8 43.2475 Q2054.79 44.7058 2060.78 46.0426 L2063.34 46.6097 Q2071.28 48.3111 2074.6 51.4303 Q2077.96 54.509 2077.96 60.0587 Q2077.96 66.3781 2072.94 70.0644 Q2067.95 73.7508 2059.2 73.7508 Q2055.56 73.7508 2051.59 73.0216 Q2047.66 72.3329 2043.28 70.9151 L2043.28 63.2184 Q2047.42 65.3654 2051.43 66.4591 Q2055.44 67.5124 2059.37 67.5124 Q2064.63 67.5124 2067.47 65.73 Q2070.3 63.9071 2070.3 60.6258 Q2070.3 57.5877 2068.24 55.9673 Q2066.21 54.3469 2059.28 52.8481 L2056.69 52.2405 Q2049.76 50.7821 2046.69 47.7845 Q2043.61 44.7463 2043.61 39.4801 Q2043.61 33.0797 2048.14 29.5959 Q2052.68 26.1121 2061.03 26.1121 Q2065.16 26.1121 2068.8 26.7198 Q2072.45 27.3274 2075.53 28.5427 Z" fill="#000000" fill-rule="nonzero" fill-opacity="1" /></svg>
