<?xml version="1.0" encoding="utf-8"?>
<svg xmlns="http://www.w3.org/2000/svg" xmlns:xlink="http://www.w3.org/1999/xlink" width="600" height="400" viewBox="0 0 2400 1600">
<defs>
  <clipPath id="clip890">
    <rect x="0" y="0" width="2400" height="1600"/>
  </clipPath>
</defs>
<path clip-path="url(#clip890)" d="M0 1600 L2400 1600 L2400 0 L0 0  Z" fill="#ffffff" fill-rule="evenodd" fill-opacity="1"/>
<defs>
  <clipPath id="clip891">
    <rect x="262" y="123" width="2091" height="1301"/>
  </clipPath>
</defs>
<path clip-path="url(#clip890)" d="M262.551 1423.18 L2352.76 1423.18 L2352.76 123.472 L262.551 123.472  Z" fill="#ffffff" fill-rule="evenodd" fill-opacity="1"/>
<polyline clip-path="url(#clip891)" style="stroke:#000000; stroke-linecap:round; stroke-linejoin:round; stroke-width:2; stroke-opacity:0.1; fill:none" points="372.975,1423.18 372.975,123.472 "/>
<polyline clip-path="url(#clip891)" style="stroke:#000000; stroke-linecap:round; stroke-linejoin:round; stroke-width:2; stroke-opacity:0.1; fill:none" points="924.167,1423.18 924.167,123.472 "/>
<polyline clip-path="url(#clip891)" style="stroke:#000000; stroke-linecap:round; stroke-linejoin:round; stroke-width:2; stroke-opacity:0.1; fill:none" points="1475.36,1423.18 1475.36,123.472 "/>
<polyline clip-path="url(#clip891)" style="stroke:#000000; stroke-linecap:round; stroke-linejoin:round; stroke-width:2; stroke-opacity:0.1; fill:none" points="2026.55,1423.18 2026.55,123.472 "/>
<polyline clip-path="url(#clip891)" style="stroke:#000000; stroke-linecap:round; stroke-linejoin:round; stroke-width:2; stroke-opacity:0.1; fill:none" points="262.551,1423.18 2352.76,1423.18 "/>
<polyline clip-path="url(#clip891)" style="stroke:#000000; stroke-linecap:round; stroke-linejoin:round; stroke-width:2; stroke-opacity:0.1; fill:none" points="262.551,1099.55 2352.76,1099.55 "/>
<polyline clip-path="url(#clip891)" style="stroke:#000000; stroke-linecap:round; stroke-linejoin:round; stroke-width:2; stroke-opacity:0.1; fill:none" points="262.551,775.915 2352.76,775.915 "/>
<polyline clip-path="url(#clip891)" style="stroke:#000000; stroke-linecap:round; stroke-linejoin:round; stroke-width:2; stroke-opacity:0.1; fill:none" points="262.551,452.283 2352.76,452.283 "/>
<polyline clip-path="url(#clip891)" style="stroke:#000000; stroke-linecap:round; stroke-linejoin:round; stroke-width:2; stroke-opacity:0.1; fill:none" points="262.551,128.65 2352.76,128.65 "/>
<polyline clip-path="url(#clip890)" style="stroke:#000000; stroke-linecap:round; stroke-linejoin:round; stroke-width:4; stroke-opacity:1; fill:none" points="262.551,1423.18 2352.76,1423.18 "/>
<polyline clip-path="url(#clip890)" style="stroke:#000000; stroke-linecap:round; stroke-linejoin:round; stroke-width:4; stroke-opacity:1; fill:none" points="372.975,1423.18 372.975,1404.28 "/>
<polyline clip-path="url(#clip890)" style="stroke:#000000; stroke-linecap:round; stroke-linejoin:round; stroke-width:4; stroke-opacity:1; fill:none" points="924.167,1423.18 924.167,1404.28 "/>
<polyline clip-path="url(#clip890)" style="stroke:#000000; stroke-linecap:round; stroke-linejoin:round; stroke-width:4; stroke-opacity:1; fill:none" points="1475.36,1423.18 1475.36,1404.28 "/>
<polyline clip-path="url(#clip890)" style="stroke:#000000; stroke-linecap:round; stroke-linejoin:round; stroke-width:4; stroke-opacity:1; fill:none" points="2026.55,1423.18 2026.55,1404.28 "/>
<path clip-path="url(#clip890)" d="M372.975 1454.1 Q369.363 1454.1 367.535 1457.66 Q365.729 1461.2 365.729 1468.33 Q365.729 1475.44 367.535 1479.01 Q369.363 1482.55 372.975 1482.55 Q376.609 1482.55 378.414 1479.01 Q380.243 1475.44 380.243 1468.33 Q380.243 1461.2 378.414 1457.66 Q376.609 1454.1 372.975 1454.1 M372.975 1450.39 Q378.785 1450.39 381.84 1455 Q384.919 1459.58 384.919 1468.33 Q384.919 1477.06 381.84 1481.67 Q378.785 1486.25 372.975 1486.25 Q367.164 1486.25 364.086 1481.67 Q361.03 1477.06 361.03 1468.33 Q361.03 1459.58 364.086 1455 Q367.164 1450.39 372.975 1450.39 Z" fill="#000000" fill-rule="nonzero" fill-opacity="1" /><path clip-path="url(#clip890)" d="M918.82 1481.64 L935.139 1481.64 L935.139 1485.58 L913.195 1485.58 L913.195 1481.64 Q915.857 1478.89 920.44 1474.26 Q925.047 1469.61 926.227 1468.27 Q928.473 1465.74 929.352 1464.01 Q930.255 1462.25 930.255 1460.56 Q930.255 1457.8 928.311 1456.07 Q926.389 1454.33 923.287 1454.33 Q921.088 1454.33 918.635 1455.09 Q916.204 1455.86 913.426 1457.41 L913.426 1452.69 Q916.25 1451.55 918.704 1450.97 Q921.158 1450.39 923.195 1450.39 Q928.565 1450.39 931.76 1453.08 Q934.954 1455.77 934.954 1460.26 Q934.954 1462.39 934.144 1464.31 Q933.357 1466.2 931.25 1468.8 Q930.672 1469.47 927.57 1472.69 Q924.468 1475.88 918.82 1481.64 Z" fill="#000000" fill-rule="nonzero" fill-opacity="1" /><path clip-path="url(#clip890)" d="M1478.37 1455.09 L1466.56 1473.54 L1478.37 1473.54 L1478.37 1455.09 M1477.14 1451.02 L1483.02 1451.02 L1483.02 1473.54 L1487.95 1473.54 L1487.95 1477.43 L1483.02 1477.43 L1483.02 1485.58 L1478.37 1485.58 L1478.37 1477.43 L1462.77 1477.43 L1462.77 1472.92 L1477.14 1451.02 Z" fill="#000000" fill-rule="nonzero" fill-opacity="1" /><path clip-path="url(#clip890)" d="M2026.96 1466.44 Q2023.81 1466.44 2021.96 1468.59 Q2020.13 1470.74 2020.13 1474.49 Q2020.13 1478.22 2021.96 1480.39 Q2023.81 1482.55 2026.96 1482.55 Q2030.11 1482.55 2031.93 1480.39 Q2033.79 1478.22 2033.79 1474.49 Q2033.79 1470.74 2031.93 1468.59 Q2030.11 1466.44 2026.96 1466.44 M2036.24 1451.78 L2036.24 1456.04 Q2034.48 1455.21 2032.67 1454.77 Q2030.89 1454.33 2029.13 1454.33 Q2024.5 1454.33 2022.05 1457.45 Q2019.62 1460.58 2019.27 1466.9 Q2020.64 1464.89 2022.7 1463.82 Q2024.76 1462.73 2027.23 1462.73 Q2032.44 1462.73 2035.45 1465.9 Q2038.48 1469.05 2038.48 1474.49 Q2038.48 1479.82 2035.34 1483.03 Q2032.19 1486.25 2026.96 1486.25 Q2020.96 1486.25 2017.79 1481.67 Q2014.62 1477.06 2014.62 1468.33 Q2014.62 1460.14 2018.51 1455.28 Q2022.4 1450.39 2028.95 1450.39 Q2030.71 1450.39 2032.49 1450.74 Q2034.3 1451.09 2036.24 1451.78 Z" fill="#000000" fill-rule="nonzero" fill-opacity="1" /><path clip-path="url(#clip890)" d="M1238.28 1568.04 L1220.14 1520.52 L1226.86 1520.52 L1241.91 1560.53 L1257 1520.52 L1263.68 1520.52 L1245.57 1568.04 L1238.28 1568.04 Z" fill="#000000" fill-rule="nonzero" fill-opacity="1" /><path clip-path="url(#clip890)" d="M1281.51 1550.12 Q1274.41 1550.12 1271.67 1551.75 Q1268.93 1553.37 1268.93 1557.29 Q1268.93 1560.4 1270.97 1562.25 Q1273.04 1564.07 1276.57 1564.07 Q1281.44 1564.07 1284.37 1560.63 Q1287.33 1557.16 1287.33 1551.43 L1287.33 1550.12 L1281.51 1550.12 M1293.19 1547.71 L1293.19 1568.04 L1287.33 1568.04 L1287.33 1562.63 Q1285.33 1565.88 1282.33 1567.44 Q1279.34 1568.97 1275.01 1568.97 Q1269.54 1568.97 1266.29 1565.91 Q1263.08 1562.82 1263.08 1557.67 Q1263.08 1551.65 1267.09 1548.6 Q1271.13 1545.54 1279.12 1545.54 L1287.33 1545.54 L1287.33 1544.97 Q1287.33 1540.93 1284.66 1538.73 Q1282.02 1536.5 1277.21 1536.5 Q1274.15 1536.5 1271.26 1537.23 Q1268.36 1537.97 1265.69 1539.43 L1265.69 1534.02 Q1268.9 1532.78 1271.93 1532.17 Q1274.95 1531.54 1277.81 1531.54 Q1285.55 1531.54 1289.37 1535.55 Q1293.19 1539.56 1293.19 1547.71 Z" fill="#000000" fill-rule="nonzero" fill-opacity="1" /><path clip-path="url(#clip890)" d="M1305.25 1518.52 L1311.11 1518.52 L1311.11 1568.04 L1305.25 1568.04 L1305.25 1518.52 Z" fill="#000000" fill-rule="nonzero" fill-opacity="1" /><path clip-path="url(#clip890)" d="M1322.76 1553.98 L1322.76 1532.4 L1328.61 1532.4 L1328.61 1553.75 Q1328.61 1558.81 1330.59 1561.36 Q1332.56 1563.87 1336.51 1563.87 Q1341.25 1563.87 1343.99 1560.85 Q1346.75 1557.83 1346.75 1552.61 L1346.75 1532.4 L1352.61 1532.4 L1352.61 1568.04 L1346.75 1568.04 L1346.75 1562.57 Q1344.62 1565.82 1341.79 1567.41 Q1338.99 1568.97 1335.26 1568.97 Q1329.12 1568.97 1325.94 1565.15 Q1322.76 1561.33 1322.76 1553.98 M1337.49 1531.54 L1337.49 1531.54 Z" fill="#000000" fill-rule="nonzero" fill-opacity="1" /><path clip-path="url(#clip890)" d="M1395.17 1548.76 L1395.17 1551.62 L1368.24 1551.62 Q1368.62 1557.67 1371.87 1560.85 Q1375.15 1564 1380.97 1564 Q1384.34 1564 1387.5 1563.17 Q1390.68 1562.35 1393.8 1560.69 L1393.8 1566.23 Q1390.65 1567.57 1387.34 1568.27 Q1384.03 1568.97 1380.62 1568.97 Q1372.09 1568.97 1367.09 1564 Q1362.13 1559.04 1362.13 1550.57 Q1362.13 1541.82 1366.84 1536.69 Q1371.58 1531.54 1379.6 1531.54 Q1386.8 1531.54 1390.96 1536.18 Q1395.17 1540.8 1395.17 1548.76 M1389.31 1547.04 Q1389.25 1542.23 1386.6 1539.37 Q1383.99 1536.5 1379.67 1536.5 Q1374.76 1536.5 1371.8 1539.27 Q1368.88 1542.04 1368.43 1547.07 L1389.31 1547.04 Z" fill="#000000" fill-rule="nonzero" fill-opacity="1" /><polyline clip-path="url(#clip890)" style="stroke:#000000; stroke-linecap:round; stroke-linejoin:round; stroke-width:4; stroke-opacity:1; fill:none" points="262.551,1423.18 262.551,123.472 "/>
<polyline clip-path="url(#clip890)" style="stroke:#000000; stroke-linecap:round; stroke-linejoin:round; stroke-width:4; stroke-opacity:1; fill:none" points="262.551,1423.18 281.449,1423.18 "/>
<polyline clip-path="url(#clip890)" style="stroke:#000000; stroke-linecap:round; stroke-linejoin:round; stroke-width:4; stroke-opacity:1; fill:none" points="262.551,1099.55 281.449,1099.55 "/>
<polyline clip-path="url(#clip890)" style="stroke:#000000; stroke-linecap:round; stroke-linejoin:round; stroke-width:4; stroke-opacity:1; fill:none" points="262.551,775.915 281.449,775.915 "/>
<polyline clip-path="url(#clip890)" style="stroke:#000000; stroke-linecap:round; stroke-linejoin:round; stroke-width:4; stroke-opacity:1; fill:none" points="262.551,452.283 281.449,452.283 "/>
<polyline clip-path="url(#clip890)" style="stroke:#000000; stroke-linecap:round; stroke-linejoin:round; stroke-width:4; stroke-opacity:1; fill:none" points="262.551,128.65 281.449,128.65 "/>
<path clip-path="url(#clip890)" d="M214.607 1408.98 Q210.996 1408.98 209.167 1412.54 Q207.362 1416.08 207.362 1423.21 Q207.362 1430.32 209.167 1433.89 Q210.996 1437.43 214.607 1437.43 Q218.241 1437.43 220.047 1433.89 Q221.875 1430.32 221.875 1423.21 Q221.875 1416.08 220.047 1412.54 Q218.241 1408.98 214.607 1408.98 M214.607 1405.27 Q220.417 1405.27 223.473 1409.88 Q226.551 1414.46 226.551 1423.21 Q226.551 1431.94 223.473 1436.55 Q220.417 1441.13 214.607 1441.13 Q208.797 1441.13 205.718 1436.55 Q202.662 1431.94 202.662 1423.21 Q202.662 1414.46 205.718 1409.88 Q208.797 1405.27 214.607 1405.27 Z" fill="#000000" fill-rule="nonzero" fill-opacity="1" /><path clip-path="url(#clip890)" d="M148.311 1112.89 L164.63 1112.89 L164.63 1116.83 L142.686 1116.83 L142.686 1112.89 Q145.348 1110.14 149.931 1105.51 Q154.538 1100.86 155.718 1099.51 Q157.964 1096.99 158.843 1095.25 Q159.746 1093.49 159.746 1091.8 Q159.746 1089.05 157.802 1087.31 Q155.88 1085.58 152.778 1085.58 Q150.579 1085.58 148.126 1086.34 Q145.695 1087.11 142.917 1088.66 L142.917 1083.93 Q145.741 1082.8 148.195 1082.22 Q150.649 1081.64 152.686 1081.64 Q158.056 1081.64 161.251 1084.33 Q164.445 1087.01 164.445 1091.5 Q164.445 1093.63 163.635 1095.55 Q162.848 1097.45 160.741 1100.05 Q160.163 1100.72 157.061 1103.93 Q153.959 1107.13 148.311 1112.89 Z" fill="#000000" fill-rule="nonzero" fill-opacity="1" /><path clip-path="url(#clip890)" d="M174.491 1082.27 L192.848 1082.27 L192.848 1086.2 L178.774 1086.2 L178.774 1094.67 Q179.792 1094.33 180.811 1094.17 Q181.829 1093.98 182.848 1093.98 Q188.635 1093.98 192.014 1097.15 Q195.394 1100.32 195.394 1105.74 Q195.394 1111.32 191.922 1114.42 Q188.45 1117.5 182.13 1117.5 Q179.954 1117.5 177.686 1117.13 Q175.44 1116.76 173.033 1116.02 L173.033 1111.32 Q175.116 1112.45 177.339 1113.01 Q179.561 1113.56 182.038 1113.56 Q186.042 1113.56 188.38 1111.46 Q190.718 1109.35 190.718 1105.74 Q190.718 1102.13 188.38 1100.02 Q186.042 1097.92 182.038 1097.92 Q180.163 1097.92 178.288 1098.33 Q176.436 1098.75 174.491 1099.63 L174.491 1082.27 Z" fill="#000000" fill-rule="nonzero" fill-opacity="1" /><path clip-path="url(#clip890)" d="M214.607 1085.35 Q210.996 1085.35 209.167 1088.91 Q207.362 1092.45 207.362 1099.58 Q207.362 1106.69 209.167 1110.25 Q210.996 1113.8 214.607 1113.8 Q218.241 1113.8 220.047 1110.25 Q221.875 1106.69 221.875 1099.58 Q221.875 1092.45 220.047 1088.91 Q218.241 1085.35 214.607 1085.35 M214.607 1081.64 Q220.417 1081.64 223.473 1086.25 Q226.551 1090.83 226.551 1099.58 Q226.551 1108.31 223.473 1112.92 Q220.417 1117.5 214.607 1117.5 Q208.797 1117.5 205.718 1112.92 Q202.662 1108.31 202.662 1099.58 Q202.662 1090.83 205.718 1086.25 Q208.797 1081.64 214.607 1081.64 Z" fill="#000000" fill-rule="nonzero" fill-opacity="1" /><path clip-path="url(#clip890)" d="M144.329 758.635 L162.686 758.635 L162.686 762.57 L148.612 762.57 L148.612 771.042 Q149.63 770.695 150.649 770.533 Q151.667 770.348 152.686 770.348 Q158.473 770.348 161.852 773.519 Q165.232 776.691 165.232 782.107 Q165.232 787.686 161.76 790.788 Q158.288 793.866 151.968 793.866 Q149.792 793.866 147.524 793.496 Q145.279 793.126 142.871 792.385 L142.871 787.686 Q144.954 788.82 147.177 789.376 Q149.399 789.931 151.876 789.931 Q155.88 789.931 158.218 787.825 Q160.556 785.718 160.556 782.107 Q160.556 778.496 158.218 776.39 Q155.88 774.283 151.876 774.283 Q150.001 774.283 148.126 774.7 Q146.274 775.116 144.329 775.996 L144.329 758.635 Z" fill="#000000" fill-rule="nonzero" fill-opacity="1" /><path clip-path="url(#clip890)" d="M184.445 761.714 Q180.834 761.714 179.005 765.279 Q177.2 768.82 177.2 775.95 Q177.2 783.056 179.005 786.621 Q180.834 790.163 184.445 790.163 Q188.079 790.163 189.885 786.621 Q191.713 783.056 191.713 775.95 Q191.713 768.82 189.885 765.279 Q188.079 761.714 184.445 761.714 M184.445 758.01 Q190.255 758.01 193.311 762.617 Q196.389 767.2 196.389 775.95 Q196.389 784.677 193.311 789.283 Q190.255 793.866 184.445 793.866 Q178.635 793.866 175.556 789.283 Q172.501 784.677 172.501 775.95 Q172.501 767.2 175.556 762.617 Q178.635 758.01 184.445 758.01 Z" fill="#000000" fill-rule="nonzero" fill-opacity="1" /><path clip-path="url(#clip890)" d="M214.607 761.714 Q210.996 761.714 209.167 765.279 Q207.362 768.82 207.362 775.95 Q207.362 783.056 209.167 786.621 Q210.996 790.163 214.607 790.163 Q218.241 790.163 220.047 786.621 Q221.875 783.056 221.875 775.95 Q221.875 768.82 220.047 765.279 Q218.241 761.714 214.607 761.714 M214.607 758.01 Q220.417 758.01 223.473 762.617 Q226.551 767.2 226.551 775.95 Q226.551 784.677 223.473 789.283 Q220.417 793.866 214.607 793.866 Q208.797 793.866 205.718 789.283 Q202.662 784.677 202.662 775.95 Q202.662 767.2 205.718 762.617 Q208.797 758.01 214.607 758.01 Z" fill="#000000" fill-rule="nonzero" fill-opacity="1" /><path clip-path="url(#clip890)" d="M143.103 435.003 L165.325 435.003 L165.325 436.993 L152.778 469.563 L147.894 469.563 L159.7 438.938 L143.103 438.938 L143.103 435.003 Z" fill="#000000" fill-rule="nonzero" fill-opacity="1" /><path clip-path="url(#clip890)" d="M174.491 435.003 L192.848 435.003 L192.848 438.938 L178.774 438.938 L178.774 447.41 Q179.792 447.063 180.811 446.901 Q181.829 446.716 182.848 446.716 Q188.635 446.716 192.014 449.887 Q195.394 453.058 195.394 458.475 Q195.394 464.053 191.922 467.155 Q188.45 470.234 182.13 470.234 Q179.954 470.234 177.686 469.864 Q175.44 469.493 173.033 468.752 L173.033 464.053 Q175.116 465.188 177.339 465.743 Q179.561 466.299 182.038 466.299 Q186.042 466.299 188.38 464.192 Q190.718 462.086 190.718 458.475 Q190.718 454.864 188.38 452.757 Q186.042 450.651 182.038 450.651 Q180.163 450.651 178.288 451.067 Q176.436 451.484 174.491 452.364 L174.491 435.003 Z" fill="#000000" fill-rule="nonzero" fill-opacity="1" /><path clip-path="url(#clip890)" d="M214.607 438.081 Q210.996 438.081 209.167 441.646 Q207.362 445.188 207.362 452.317 Q207.362 459.424 209.167 462.989 Q210.996 466.53 214.607 466.53 Q218.241 466.53 220.047 462.989 Q221.875 459.424 221.875 452.317 Q221.875 445.188 220.047 441.646 Q218.241 438.081 214.607 438.081 M214.607 434.378 Q220.417 434.378 223.473 438.984 Q226.551 443.567 226.551 452.317 Q226.551 461.044 223.473 465.651 Q220.417 470.234 214.607 470.234 Q208.797 470.234 205.718 465.651 Q202.662 461.044 202.662 452.317 Q202.662 443.567 205.718 438.984 Q208.797 434.378 214.607 434.378 Z" fill="#000000" fill-rule="nonzero" fill-opacity="1" /><path clip-path="url(#clip890)" d="M114.931 141.995 L122.57 141.995 L122.57 115.629 L114.26 117.296 L114.26 113.037 L122.524 111.37 L127.2 111.37 L127.2 141.995 L134.839 141.995 L134.839 145.93 L114.931 145.93 L114.931 141.995 Z" fill="#000000" fill-rule="nonzero" fill-opacity="1" /><path clip-path="url(#clip890)" d="M154.283 114.449 Q150.672 114.449 148.843 118.014 Q147.038 121.555 147.038 128.685 Q147.038 135.791 148.843 139.356 Q150.672 142.898 154.283 142.898 Q157.917 142.898 159.723 139.356 Q161.552 135.791 161.552 128.685 Q161.552 121.555 159.723 118.014 Q157.917 114.449 154.283 114.449 M154.283 110.745 Q160.093 110.745 163.149 115.352 Q166.227 119.935 166.227 128.685 Q166.227 137.412 163.149 142.018 Q160.093 146.602 154.283 146.602 Q148.473 146.602 145.394 142.018 Q142.339 137.412 142.339 128.685 Q142.339 119.935 145.394 115.352 Q148.473 110.745 154.283 110.745 Z" fill="#000000" fill-rule="nonzero" fill-opacity="1" /><path clip-path="url(#clip890)" d="M184.445 114.449 Q180.834 114.449 179.005 118.014 Q177.2 121.555 177.2 128.685 Q177.2 135.791 179.005 139.356 Q180.834 142.898 184.445 142.898 Q188.079 142.898 189.885 139.356 Q191.713 135.791 191.713 128.685 Q191.713 121.555 189.885 118.014 Q188.079 114.449 184.445 114.449 M184.445 110.745 Q190.255 110.745 193.311 115.352 Q196.389 119.935 196.389 128.685 Q196.389 137.412 193.311 142.018 Q190.255 146.602 184.445 146.602 Q178.635 146.602 175.556 142.018 Q172.501 137.412 172.501 128.685 Q172.501 119.935 175.556 115.352 Q178.635 110.745 184.445 110.745 Z" fill="#000000" fill-rule="nonzero" fill-opacity="1" /><path clip-path="url(#clip890)" d="M214.607 114.449 Q210.996 114.449 209.167 118.014 Q207.362 121.555 207.362 128.685 Q207.362 135.791 209.167 139.356 Q210.996 142.898 214.607 142.898 Q218.241 142.898 220.047 139.356 Q221.875 135.791 221.875 128.685 Q221.875 121.555 220.047 118.014 Q218.241 114.449 214.607 114.449 M214.607 110.745 Q220.417 110.745 223.473 115.352 Q226.551 119.935 226.551 128.685 Q226.551 137.412 223.473 142.018 Q220.417 146.602 214.607 146.602 Q208.797 146.602 205.718 142.018 Q202.662 137.412 202.662 128.685 Q202.662 119.935 205.718 115.352 Q208.797 110.745 214.607 110.745 Z" fill="#000000" fill-rule="nonzero" fill-opacity="1" /><path clip-path="url(#clip890)" d="M16.4842 937.529 L16.4842 910.221 L21.895 910.221 L21.895 931.1 L35.8996 931.1 L35.8996 912.258 L41.3104 912.258 L41.3104 931.1 L64.0042 931.1 L64.0042 937.529 L16.4842 937.529 Z" fill="#000000" fill-rule="nonzero" fill-opacity="1" /><path clip-path="url(#clip890)" d="M33.8307 884.376 Q33.2578 885.362 33.0032 886.54 Q32.7167 887.686 32.7167 889.086 Q32.7167 894.052 35.9632 896.725 Q39.1779 899.367 45.2253 899.367 L64.0042 899.367 L64.0042 905.255 L28.3562 905.255 L28.3562 899.367 L33.8944 899.367 Q30.6479 897.521 29.0883 894.561 Q27.4968 891.601 27.4968 887.368 Q27.4968 886.763 27.5923 886.031 Q27.656 885.299 27.8151 884.408 L33.8307 884.376 Z" fill="#000000" fill-rule="nonzero" fill-opacity="1" /><path clip-path="url(#clip890)" d="M44.7161 849.173 L47.5806 849.173 L47.5806 876.1 Q53.6281 875.718 56.8109 872.472 Q59.9619 869.194 59.9619 863.369 Q59.9619 859.995 59.1344 856.844 Q58.3069 853.661 56.6518 850.542 L62.1899 850.542 Q63.5267 853.693 64.227 857.003 Q64.9272 860.313 64.9272 863.719 Q64.9272 872.249 59.9619 877.246 Q54.9967 882.211 46.5303 882.211 Q37.7774 882.211 32.6531 877.501 Q27.4968 872.758 27.4968 864.738 Q27.4968 857.544 32.1438 853.375 Q36.7589 849.173 44.7161 849.173 M42.9973 855.03 Q38.1912 855.093 35.3266 857.735 Q32.4621 860.345 32.4621 864.674 Q32.4621 869.575 35.2312 872.536 Q38.0002 875.464 43.0292 875.909 L42.9973 855.03 Z" fill="#000000" fill-rule="nonzero" fill-opacity="1" /><path clip-path="url(#clip890)" d="M46.212 836.06 Q52.6732 836.06 56.3653 833.418 Q60.0256 830.745 60.0256 826.098 Q60.0256 821.451 56.3653 818.777 Q52.6732 816.104 46.212 816.104 Q39.7508 816.104 36.0905 818.777 Q32.3984 821.451 32.3984 826.098 Q32.3984 830.745 36.0905 833.418 Q39.7508 836.06 46.212 836.06 M58.657 816.104 Q61.8398 817.95 63.3994 820.782 Q64.9272 823.583 64.9272 827.53 Q64.9272 833.991 59.771 838.065 Q54.6147 842.107 46.212 842.107 Q37.8093 842.107 32.6531 838.065 Q27.4968 833.991 27.4968 827.53 Q27.4968 823.583 29.0564 820.782 Q30.5842 817.95 33.7671 816.104 L28.3562 816.104 L28.3562 810.247 L77.5631 810.247 L77.5631 816.104 L58.657 816.104 Z" fill="#000000" fill-rule="nonzero" fill-opacity="1" /><path clip-path="url(#clip890)" d="M49.9359 798.789 L28.3562 798.789 L28.3562 792.932 L49.7131 792.932 Q54.7739 792.932 57.3202 790.959 Q59.8346 788.986 59.8346 785.039 Q59.8346 780.296 56.8109 777.559 Q53.7872 774.79 48.5673 774.79 L28.3562 774.79 L28.3562 768.934 L64.0042 768.934 L64.0042 774.79 L58.5296 774.79 Q61.7762 776.923 63.3676 779.755 Q64.9272 782.556 64.9272 786.28 Q64.9272 792.423 61.1078 795.606 Q57.2883 798.789 49.9359 798.789 M27.4968 784.052 L27.4968 784.052 Z" fill="#000000" fill-rule="nonzero" fill-opacity="1" /><path clip-path="url(#clip890)" d="M44.7161 726.379 L47.5806 726.379 L47.5806 753.306 Q53.6281 752.924 56.8109 749.677 Q59.9619 746.399 59.9619 740.574 Q59.9619 737.201 59.1344 734.05 Q58.3069 730.867 56.6518 727.748 L62.1899 727.748 Q63.5267 730.899 64.227 734.209 Q64.9272 737.519 64.9272 740.925 Q64.9272 749.455 59.9619 754.452 Q54.9967 759.417 46.5303 759.417 Q37.7774 759.417 32.6531 754.706 Q27.4968 749.964 27.4968 741.943 Q27.4968 734.75 32.1438 730.58 Q36.7589 726.379 44.7161 726.379 M42.9973 732.235 Q38.1912 732.299 35.3266 734.941 Q32.4621 737.551 32.4621 741.879 Q32.4621 746.781 35.2312 749.741 Q38.0002 752.669 43.0292 753.115 L42.9973 732.235 Z" fill="#000000" fill-rule="nonzero" fill-opacity="1" /><path clip-path="url(#clip890)" d="M42.4881 687.134 L64.0042 687.134 L64.0042 692.991 L42.679 692.991 Q37.6183 692.991 35.1038 694.964 Q32.5894 696.938 32.5894 700.884 Q32.5894 705.627 35.6131 708.364 Q38.6368 711.101 43.8567 711.101 L64.0042 711.101 L64.0042 716.989 L28.3562 716.989 L28.3562 711.101 L33.8944 711.101 Q30.6797 709.001 29.0883 706.168 Q27.4968 703.303 27.4968 699.579 Q27.4968 693.436 31.3163 690.285 Q35.1038 687.134 42.4881 687.134 Z" fill="#000000" fill-rule="nonzero" fill-opacity="1" /><path clip-path="url(#clip890)" d="M29.7248 649.799 L35.1993 649.799 Q33.8307 652.282 33.1623 654.797 Q32.4621 657.279 32.4621 659.825 Q32.4621 665.523 36.0905 668.674 Q39.6872 671.825 46.212 671.825 Q52.7369 671.825 56.3653 668.674 Q59.9619 665.523 59.9619 659.825 Q59.9619 657.279 59.2935 654.797 Q58.5933 652.282 57.2247 649.799 L62.6355 649.799 Q63.7814 652.25 64.3543 654.892 Q64.9272 657.502 64.9272 660.462 Q64.9272 668.515 59.8664 673.257 Q54.8057 678 46.212 678 Q37.491 678 32.4939 673.225 Q27.4968 668.419 27.4968 660.08 Q27.4968 657.375 28.0697 654.797 Q28.6108 652.218 29.7248 649.799 Z" fill="#000000" fill-rule="nonzero" fill-opacity="1" /><path clip-path="url(#clip890)" d="M67.3143 624.782 Q73.68 627.265 75.6216 629.62 Q77.5631 631.975 77.5631 635.922 L77.5631 640.601 L72.6615 640.601 L72.6615 637.164 Q72.6615 634.745 71.5157 633.408 Q70.3699 632.071 66.1048 630.448 L63.4312 629.397 L28.3562 643.816 L28.3562 637.609 L56.238 626.469 L28.3562 615.329 L28.3562 609.123 L67.3143 624.782 Z" fill="#000000" fill-rule="nonzero" fill-opacity="1" /><path clip-path="url(#clip890)" d="M524.188 43.6931 L524.188 65.8515 L537.313 65.8515 Q543.916 65.8515 547.076 63.1374 Q550.276 60.3828 550.276 54.752 Q550.276 49.0808 547.076 46.4072 Q543.916 43.6931 537.313 43.6931 L524.188 43.6931 M524.188 18.8205 L524.188 37.0496 L536.301 37.0496 Q542.296 37.0496 545.213 34.8216 Q548.17 32.5531 548.17 27.935 Q548.17 23.3575 545.213 21.089 Q542.296 18.8205 536.301 18.8205 L524.188 18.8205 M516.006 12.096 L536.908 12.096 Q546.266 12.096 551.329 15.9849 Q556.393 19.8737 556.393 27.0438 Q556.393 32.5936 553.801 35.8748 Q551.208 39.156 546.185 39.9662 Q552.221 41.2625 555.542 45.3944 Q558.905 49.4858 558.905 55.6432 Q558.905 63.745 553.395 68.1605 Q547.886 72.576 537.718 72.576 L516.006 72.576 L516.006 12.096 Z" fill="#000000" fill-rule="nonzero" fill-opacity="1" /><path clip-path="url(#clip890)" d="M593.216 49.7694 Q584.182 49.7694 580.699 51.8354 Q577.215 53.9013 577.215 58.8839 Q577.215 62.8538 579.807 65.2034 Q582.44 67.5124 586.937 67.5124 Q593.135 67.5124 596.862 63.1374 Q600.629 58.7219 600.629 51.4303 L600.629 49.7694 L593.216 49.7694 M608.083 46.6907 L608.083 72.576 L600.629 72.576 L600.629 65.6895 Q598.077 69.8214 594.269 71.8063 Q590.461 73.7508 584.952 73.7508 Q577.984 73.7508 573.853 69.8619 Q569.761 65.9325 569.761 59.3701 Q569.761 51.7138 574.865 47.825 Q580.01 43.9361 590.178 43.9361 L600.629 43.9361 L600.629 43.2069 Q600.629 38.0623 597.226 35.2672 Q593.864 32.4315 587.747 32.4315 Q583.858 32.4315 580.172 33.3632 Q576.486 34.295 573.083 36.1584 L573.083 29.2718 Q577.174 27.692 581.023 26.9223 Q584.871 26.1121 588.517 26.1121 Q598.36 26.1121 603.222 31.2163 Q608.083 36.3204 608.083 46.6907 Z" fill="#000000" fill-rule="nonzero" fill-opacity="1" /><path clip-path="url(#clip890)" d="M649.726 34.1734 Q648.47 33.4443 646.971 33.1202 Q645.513 32.7556 643.731 32.7556 Q637.411 32.7556 634.008 36.8875 Q630.646 40.9789 630.646 48.6757 L630.646 72.576 L623.152 72.576 L623.152 27.2059 L630.646 27.2059 L630.646 34.2544 Q632.996 30.1225 636.763 28.1376 Q640.53 26.1121 645.918 26.1121 Q646.688 26.1121 647.619 26.2337 Q648.551 26.3147 649.685 26.5172 L649.726 34.1734 Z" fill="#000000" fill-rule="nonzero" fill-opacity="1" /><path clip-path="url(#clip890)" d="M729.529 16.7545 L729.529 25.383 Q725.397 21.5346 720.698 19.6307 Q716.039 17.7268 710.773 17.7268 Q700.403 17.7268 694.894 24.0867 Q689.384 30.4061 689.384 42.3968 Q689.384 54.3469 694.894 60.7069 Q700.403 67.0263 710.773 67.0263 Q716.039 67.0263 720.698 65.1223 Q725.397 63.2184 729.529 59.3701 L729.529 67.9175 Q725.235 70.8341 720.414 72.2924 Q715.634 73.7508 710.287 73.7508 Q696.554 73.7508 688.655 65.3654 Q680.756 56.9395 680.756 42.3968 Q680.756 27.8135 688.655 19.4281 Q696.554 11.0023 710.287 11.0023 Q715.715 11.0023 720.495 12.4606 Q725.316 13.8784 729.529 16.7545 Z" fill="#000000" fill-rule="nonzero" fill-opacity="1" /><path clip-path="url(#clip890)" d="M779.557 45.1919 L779.557 72.576 L772.104 72.576 L772.104 45.4349 Q772.104 38.994 769.592 35.7938 Q767.081 32.5936 762.058 32.5936 Q756.022 32.5936 752.538 36.4419 Q749.054 40.2903 749.054 46.9338 L749.054 72.576 L741.56 72.576 L741.56 9.54393 L749.054 9.54393 L749.054 34.2544 Q751.728 30.163 755.333 28.1376 Q758.979 26.1121 763.718 26.1121 Q771.537 26.1121 775.547 30.9732 Q779.557 35.7938 779.557 45.1919 Z" fill="#000000" fill-rule="nonzero" fill-opacity="1" /><path clip-path="url(#clip890)" d="M815.043 49.7694 Q806.01 49.7694 802.526 51.8354 Q799.042 53.9013 799.042 58.8839 Q799.042 62.8538 801.635 65.2034 Q804.268 67.5124 808.764 67.5124 Q814.962 67.5124 818.689 63.1374 Q822.457 58.7219 822.457 51.4303 L822.457 49.7694 L815.043 49.7694 M829.91 46.6907 L829.91 72.576 L822.457 72.576 L822.457 65.6895 Q819.904 69.8214 816.097 71.8063 Q812.289 73.7508 806.78 73.7508 Q799.812 73.7508 795.68 69.8619 Q791.589 65.9325 791.589 59.3701 Q791.589 51.7138 796.693 47.825 Q801.837 43.9361 812.005 43.9361 L822.457 43.9361 L822.457 43.2069 Q822.457 38.0623 819.054 35.2672 Q815.692 32.4315 809.575 32.4315 Q805.686 32.4315 801.999 33.3632 Q798.313 34.295 794.91 36.1584 L794.91 29.2718 Q799.002 27.692 802.85 26.9223 Q806.698 26.1121 810.344 26.1121 Q820.188 26.1121 825.049 31.2163 Q829.91 36.3204 829.91 46.6907 Z" fill="#000000" fill-rule="nonzero" fill-opacity="1" /><path clip-path="url(#clip890)" d="M871.553 34.1734 Q870.298 33.4443 868.799 33.1202 Q867.341 32.7556 865.558 32.7556 Q859.239 32.7556 855.836 36.8875 Q852.474 40.9789 852.474 48.6757 L852.474 72.576 L844.98 72.576 L844.98 27.2059 L852.474 27.2059 L852.474 34.2544 Q854.823 30.1225 858.591 28.1376 Q862.358 26.1121 867.746 26.1121 Q868.515 26.1121 869.447 26.2337 Q870.379 26.3147 871.513 26.5172 L871.553 34.1734 Z" fill="#000000" fill-rule="nonzero" fill-opacity="1" /><path clip-path="url(#clip890)" d="M886.744 14.324 L886.744 27.2059 L902.097 27.2059 L902.097 32.9987 L886.744 32.9987 L886.744 57.6282 Q886.744 63.1779 888.243 64.7578 Q889.783 66.3376 894.441 66.3376 L902.097 66.3376 L902.097 72.576 L894.441 72.576 Q885.813 72.576 882.531 69.3758 Q879.25 66.1351 879.25 57.6282 L879.25 32.9987 L873.781 32.9987 L873.781 27.2059 L879.25 27.2059 L879.25 14.324 L886.744 14.324 Z" fill="#000000" fill-rule="nonzero" fill-opacity="1" /><path clip-path="url(#clip890)" d="M955.853 32.4315 Q949.857 32.4315 946.374 37.1306 Q942.89 41.7891 942.89 49.9314 Q942.89 58.0738 946.333 62.7728 Q949.817 67.4314 955.853 67.4314 Q961.808 67.4314 965.291 62.7323 Q968.775 58.0333 968.775 49.9314 Q968.775 41.8701 965.291 37.1711 Q961.808 32.4315 955.853 32.4315 M955.853 26.1121 Q965.575 26.1121 971.125 32.4315 Q976.674 38.7509 976.674 49.9314 Q976.674 61.0714 971.125 67.4314 Q965.575 73.7508 955.853 73.7508 Q946.09 73.7508 940.54 67.4314 Q935.031 61.0714 935.031 49.9314 Q935.031 38.7509 940.54 32.4315 Q946.09 26.1121 955.853 26.1121 Z" fill="#000000" fill-rule="nonzero" fill-opacity="1" /><path clip-path="url(#clip890)" d="M1012 9.54393 L1012 15.7418 L1004.87 15.7418 Q1000.86 15.7418 999.278 17.3622 Q997.739 18.9825 997.739 23.1955 L997.739 27.2059 L1010.01 27.2059 L1010.01 32.9987 L997.739 32.9987 L997.739 72.576 L990.245 72.576 L990.245 32.9987 L983.115 32.9987 L983.115 27.2059 L990.245 27.2059 L990.245 24.0462 Q990.245 16.471 993.769 13.0277 Q997.294 9.54393 1004.95 9.54393 L1012 9.54393 Z" fill="#000000" fill-rule="nonzero" fill-opacity="1" /><path clip-path="url(#clip890)" d="M1044.93 12.096 L1053.11 12.096 L1053.11 72.576 L1044.93 72.576 L1044.93 12.096 Z" fill="#000000" fill-rule="nonzero" fill-opacity="1" /><path clip-path="url(#clip890)" d="M1106.79 45.1919 L1106.79 72.576 L1099.34 72.576 L1099.34 45.4349 Q1099.34 38.994 1096.82 35.7938 Q1094.31 32.5936 1089.29 32.5936 Q1083.25 32.5936 1079.77 36.4419 Q1076.29 40.2903 1076.29 46.9338 L1076.29 72.576 L1068.79 72.576 L1068.79 27.2059 L1076.29 27.2059 L1076.29 34.2544 Q1078.96 30.163 1082.57 28.1376 Q1086.21 26.1121 1090.95 26.1121 Q1098.77 26.1121 1102.78 30.9732 Q1106.79 35.7938 1106.79 45.1919 Z" fill="#000000" fill-rule="nonzero" fill-opacity="1" /><path clip-path="url(#clip890)" d="M1129.03 14.324 L1129.03 27.2059 L1144.38 27.2059 L1144.38 32.9987 L1129.03 32.9987 L1129.03 57.6282 Q1129.03 63.1779 1130.53 64.7578 Q1132.07 66.3376 1136.73 66.3376 L1144.38 66.3376 L1144.38 72.576 L1136.73 72.576 Q1128.1 72.576 1124.82 69.3758 Q1121.53 66.1351 1121.53 57.6282 L1121.53 32.9987 L1116.07 32.9987 L1116.07 27.2059 L1121.53 27.2059 L1121.53 14.324 L1129.03 14.324 Z" fill="#000000" fill-rule="nonzero" fill-opacity="1" /><path clip-path="url(#clip890)" d="M1192.99 48.0275 L1192.99 51.6733 L1158.72 51.6733 Q1159.21 59.3701 1163.34 63.421 Q1167.51 67.4314 1174.93 67.4314 Q1179.22 67.4314 1183.23 66.3781 Q1187.28 65.3249 1191.25 63.2184 L1191.25 70.267 Q1187.24 71.9684 1183.03 72.8596 Q1178.81 73.7508 1174.48 73.7508 Q1163.62 73.7508 1157.26 67.4314 Q1150.94 61.1119 1150.94 50.3365 Q1150.94 39.1965 1156.94 32.6746 Q1162.98 26.1121 1173.18 26.1121 Q1182.34 26.1121 1187.65 32.0264 Q1192.99 37.9003 1192.99 48.0275 M1185.54 45.84 Q1185.46 39.7232 1182.1 36.0774 Q1178.77 32.4315 1173.26 32.4315 Q1167.03 32.4315 1163.26 35.9558 Q1159.53 39.4801 1158.97 45.8805 L1185.54 45.84 Z" fill="#000000" fill-rule="nonzero" fill-opacity="1" /><path clip-path="url(#clip890)" d="M1231.52 34.1734 Q1230.26 33.4443 1228.76 33.1202 Q1227.3 32.7556 1225.52 32.7556 Q1219.2 32.7556 1215.8 36.8875 Q1212.44 40.9789 1212.44 48.6757 L1212.44 72.576 L1204.94 72.576 L1204.94 27.2059 L1212.44 27.2059 L1212.44 34.2544 Q1214.79 30.1225 1218.55 28.1376 Q1222.32 26.1121 1227.71 26.1121 Q1228.48 26.1121 1229.41 26.2337 Q1230.34 26.3147 1231.48 26.5172 L1231.52 34.1734 Z" fill="#000000" fill-rule="nonzero" fill-opacity="1" /><path clip-path="url(#clip890)" d="M1233.99 27.2059 L1241.89 27.2059 L1256.07 65.2844 L1270.24 27.2059 L1278.14 27.2059 L1261.13 72.576 L1251 72.576 L1233.99 27.2059 Z" fill="#000000" fill-rule="nonzero" fill-opacity="1" /><path clip-path="url(#clip890)" d="M1309.05 49.7694 Q1300.02 49.7694 1296.53 51.8354 Q1293.05 53.9013 1293.05 58.8839 Q1293.05 62.8538 1295.64 65.2034 Q1298.28 67.5124 1302.77 67.5124 Q1308.97 67.5124 1312.7 63.1374 Q1316.46 58.7219 1316.46 51.4303 L1316.46 49.7694 L1309.05 49.7694 M1323.92 46.6907 L1323.92 72.576 L1316.46 72.576 L1316.46 65.6895 Q1313.91 69.8214 1310.1 71.8063 Q1306.3 73.7508 1300.79 73.7508 Q1293.82 73.7508 1289.69 69.8619 Q1285.6 65.9325 1285.6 59.3701 Q1285.6 51.7138 1290.7 47.825 Q1295.85 43.9361 1306.01 43.9361 L1316.46 43.9361 L1316.46 43.2069 Q1316.46 38.0623 1313.06 35.2672 Q1309.7 32.4315 1303.58 32.4315 Q1299.69 32.4315 1296.01 33.3632 Q1292.32 34.295 1288.92 36.1584 L1288.92 29.2718 Q1293.01 27.692 1296.86 26.9223 Q1300.71 26.1121 1304.35 26.1121 Q1314.2 26.1121 1319.06 31.2163 Q1323.92 36.3204 1323.92 46.6907 Z" fill="#000000" fill-rule="nonzero" fill-opacity="1" /><path clip-path="url(#clip890)" d="M1339.27 9.54393 L1346.72 9.54393 L1346.72 72.576 L1339.27 72.576 L1339.27 9.54393 Z" fill="#000000" fill-rule="nonzero" fill-opacity="1" /><path clip-path="url(#clip890)" d="M1391.24 28.5427 L1391.24 35.5912 Q1388.08 33.9709 1384.68 33.1607 Q1381.28 32.3505 1377.63 32.3505 Q1372.08 32.3505 1369.29 34.0519 Q1366.53 35.7533 1366.53 39.156 Q1366.53 41.7486 1368.52 43.2475 Q1370.5 44.7058 1376.5 46.0426 L1379.05 46.6097 Q1386.99 48.3111 1390.31 51.4303 Q1393.67 54.509 1393.67 60.0587 Q1393.67 66.3781 1388.65 70.0644 Q1383.67 73.7508 1374.92 73.7508 Q1371.27 73.7508 1367.3 73.0216 Q1363.37 72.3329 1359 70.9151 L1359 63.2184 Q1363.13 65.3654 1367.14 66.4591 Q1371.15 67.5124 1375.08 67.5124 Q1380.35 67.5124 1383.18 65.73 Q1386.02 63.9071 1386.02 60.6258 Q1386.02 57.5877 1383.95 55.9673 Q1381.93 54.3469 1375 52.8481 L1372.41 52.2405 Q1365.48 50.7821 1362.4 47.7845 Q1359.32 44.7463 1359.32 39.4801 Q1359.32 33.0797 1363.86 29.5959 Q1368.4 26.1121 1376.74 26.1121 Q1380.87 26.1121 1384.52 26.7198 Q1388.17 27.3274 1391.24 28.5427 Z" fill="#000000" fill-rule="nonzero" fill-opacity="1" /><path clip-path="url(#clip890)" d="M1452.53 49.7694 Q1443.5 49.7694 1440.02 51.8354 Q1436.53 53.9013 1436.53 58.8839 Q1436.53 62.8538 1439.13 65.2034 Q1441.76 67.5124 1446.26 67.5124 Q1452.45 67.5124 1456.18 63.1374 Q1459.95 58.7219 1459.95 51.4303 L1459.95 49.7694 L1452.53 49.7694 M1467.4 46.6907 L1467.4 72.576 L1459.95 72.576 L1459.95 65.6895 Q1457.4 69.8214 1453.59 71.8063 Q1449.78 73.7508 1444.27 73.7508 Q1437.3 73.7508 1433.17 69.8619 Q1429.08 65.9325 1429.08 59.3701 Q1429.08 51.7138 1434.18 47.825 Q1439.33 43.9361 1449.5 43.9361 L1459.95 43.9361 L1459.95 43.2069 Q1459.95 38.0623 1456.54 35.2672 Q1453.18 32.4315 1447.07 32.4315 Q1443.18 32.4315 1439.49 33.3632 Q1435.8 34.295 1432.4 36.1584 L1432.4 29.2718 Q1436.49 27.692 1440.34 26.9223 Q1444.19 26.1121 1447.84 26.1121 Q1457.68 26.1121 1462.54 31.2163 Q1467.4 36.3204 1467.4 46.6907 Z" fill="#000000" fill-rule="nonzero" fill-opacity="1" /><path clip-path="url(#clip890)" d="M1520.47 45.1919 L1520.47 72.576 L1513.01 72.576 L1513.01 45.4349 Q1513.01 38.994 1510.5 35.7938 Q1507.99 32.5936 1502.97 32.5936 Q1496.93 32.5936 1493.45 36.4419 Q1489.96 40.2903 1489.96 46.9338 L1489.96 72.576 L1482.47 72.576 L1482.47 27.2059 L1489.96 27.2059 L1489.96 34.2544 Q1492.64 30.163 1496.24 28.1376 Q1499.89 26.1121 1504.63 26.1121 Q1512.45 26.1121 1516.46 30.9732 Q1520.47 35.7938 1520.47 45.1919 Z" fill="#000000" fill-rule="nonzero" fill-opacity="1" /><path clip-path="url(#clip890)" d="M1565.19 34.0924 L1565.19 9.54393 L1572.64 9.54393 L1572.64 72.576 L1565.19 72.576 L1565.19 65.7705 Q1562.84 69.8214 1559.23 71.8063 Q1555.67 73.7508 1550.65 73.7508 Q1542.42 73.7508 1537.24 67.1883 Q1532.09 60.6258 1532.09 49.9314 Q1532.09 39.2371 1537.24 32.6746 Q1542.42 26.1121 1550.65 26.1121 Q1555.67 26.1121 1559.23 28.0971 Q1562.84 30.0415 1565.19 34.0924 M1539.79 49.9314 Q1539.79 58.1548 1543.15 62.8538 Q1546.56 67.5124 1552.47 67.5124 Q1558.38 67.5124 1561.79 62.8538 Q1565.19 58.1548 1565.19 49.9314 Q1565.19 41.7081 1561.79 37.0496 Q1558.38 32.3505 1552.47 32.3505 Q1546.56 32.3505 1543.15 37.0496 Q1539.79 41.7081 1539.79 49.9314 Z" fill="#000000" fill-rule="nonzero" fill-opacity="1" /><path clip-path="url(#clip890)" d="M1614.69 12.096 L1649.45 12.096 L1649.45 18.9825 L1622.87 18.9825 L1622.87 36.8065 L1646.86 36.8065 L1646.86 43.6931 L1622.87 43.6931 L1622.87 72.576 L1614.69 72.576 L1614.69 12.096 Z" fill="#000000" fill-rule="nonzero" fill-opacity="1" /><path clip-path="url(#clip890)" d="M1682.34 34.1734 Q1681.09 33.4443 1679.59 33.1202 Q1678.13 32.7556 1676.35 32.7556 Q1670.03 32.7556 1666.62 36.8875 Q1663.26 40.9789 1663.26 48.6757 L1663.26 72.576 L1655.77 72.576 L1655.77 27.2059 L1663.26 27.2059 L1663.26 34.2544 Q1665.61 30.1225 1669.38 28.1376 Q1673.15 26.1121 1678.53 26.1121 Q1679.3 26.1121 1680.24 26.2337 Q1681.17 26.3147 1682.3 26.5172 L1682.34 34.1734 Z" fill="#000000" fill-rule="nonzero" fill-opacity="1" /><path clip-path="url(#clip890)" d="M1727.14 48.0275 L1727.14 51.6733 L1692.87 51.6733 Q1693.36 59.3701 1697.49 63.421 Q1701.66 67.4314 1709.08 67.4314 Q1713.37 67.4314 1717.38 66.3781 Q1721.43 65.3249 1725.4 63.2184 L1725.4 70.267 Q1721.39 71.9684 1717.18 72.8596 Q1712.97 73.7508 1708.63 73.7508 Q1697.78 73.7508 1691.42 67.4314 Q1685.1 61.1119 1685.1 50.3365 Q1685.1 39.1965 1691.09 32.6746 Q1697.13 26.1121 1707.34 26.1121 Q1716.49 26.1121 1721.8 32.0264 Q1727.14 37.9003 1727.14 48.0275 M1719.69 45.84 Q1719.61 39.7232 1716.25 36.0774 Q1712.93 32.4315 1707.42 32.4315 Q1701.18 32.4315 1697.41 35.9558 Q1693.68 39.4801 1693.12 45.8805 L1719.69 45.84 Z" fill="#000000" fill-rule="nonzero" fill-opacity="1" /><path clip-path="url(#clip890)" d="M1743.83 49.9314 Q1743.83 58.1548 1747.2 62.8538 Q1750.6 67.5124 1756.51 67.5124 Q1762.43 67.5124 1765.83 62.8538 Q1769.23 58.1548 1769.23 49.9314 Q1769.23 41.7081 1765.83 37.0496 Q1762.43 32.3505 1756.51 32.3505 Q1750.6 32.3505 1747.2 37.0496 Q1743.83 41.7081 1743.83 49.9314 M1769.23 65.7705 Q1766.88 69.8214 1763.28 71.8063 Q1759.71 73.7508 1754.69 73.7508 Q1746.47 73.7508 1741.28 67.1883 Q1736.14 60.6258 1736.14 49.9314 Q1736.14 39.2371 1741.28 32.6746 Q1746.47 26.1121 1754.69 26.1121 Q1759.71 26.1121 1763.28 28.0971 Q1766.88 30.0415 1769.23 34.0924 L1769.23 27.2059 L1776.69 27.2059 L1776.69 89.8329 L1769.23 89.8329 L1769.23 65.7705 Z" fill="#000000" fill-rule="nonzero" fill-opacity="1" /><path clip-path="url(#clip890)" d="M1791.27 54.671 L1791.27 27.2059 L1798.72 27.2059 L1798.72 54.3874 Q1798.72 60.8284 1801.24 64.0691 Q1803.75 67.2693 1808.77 67.2693 Q1814.81 67.2693 1818.29 63.421 Q1821.81 59.5726 1821.81 52.9291 L1821.81 27.2059 L1829.27 27.2059 L1829.27 72.576 L1821.81 72.576 L1821.81 65.6084 Q1819.1 69.7404 1815.5 71.7658 Q1811.93 73.7508 1807.19 73.7508 Q1799.37 73.7508 1795.32 68.8897 Q1791.27 64.0286 1791.27 54.671 M1810.03 26.1121 L1810.03 26.1121 Z" fill="#000000" fill-rule="nonzero" fill-opacity="1" /><path clip-path="url(#clip890)" d="M1883.43 48.0275 L1883.43 51.6733 L1849.16 51.6733 Q1849.64 59.3701 1853.78 63.421 Q1857.95 67.4314 1865.36 67.4314 Q1869.66 67.4314 1873.67 66.3781 Q1877.72 65.3249 1881.69 63.2184 L1881.69 70.267 Q1877.68 71.9684 1873.46 72.8596 Q1869.25 73.7508 1864.92 73.7508 Q1854.06 73.7508 1847.7 67.4314 Q1841.38 61.1119 1841.38 50.3365 Q1841.38 39.1965 1847.38 32.6746 Q1853.41 26.1121 1863.62 26.1121 Q1872.77 26.1121 1878.08 32.0264 Q1883.43 37.9003 1883.43 48.0275 M1875.98 45.84 Q1875.89 39.7232 1872.53 36.0774 Q1869.21 32.4315 1863.7 32.4315 Q1857.46 32.4315 1853.7 35.9558 Q1849.97 39.4801 1849.4 45.8805 L1875.98 45.84 Z" fill="#000000" fill-rule="nonzero" fill-opacity="1" /><path clip-path="url(#clip890)" d="M1933.38 45.1919 L1933.38 72.576 L1925.92 72.576 L1925.92 45.4349 Q1925.92 38.994 1923.41 35.7938 Q1920.9 32.5936 1915.88 32.5936 Q1909.84 32.5936 1906.36 36.4419 Q1902.87 40.2903 1902.87 46.9338 L1902.87 72.576 L1895.38 72.576 L1895.38 27.2059 L1902.87 27.2059 L1902.87 34.2544 Q1905.55 30.163 1909.15 28.1376 Q1912.8 26.1121 1917.54 26.1121 Q1925.36 26.1121 1929.37 30.9732 Q1933.38 35.7938 1933.38 45.1919 Z" fill="#000000" fill-rule="nonzero" fill-opacity="1" /><path clip-path="url(#clip890)" d="M1980.89 28.9478 L1980.89 35.9153 Q1977.73 34.1734 1974.53 33.3227 Q1971.37 32.4315 1968.13 32.4315 Q1960.88 32.4315 1956.87 37.0496 Q1952.86 41.6271 1952.86 49.9314 Q1952.86 58.2358 1956.87 62.8538 Q1960.88 67.4314 1968.13 67.4314 Q1971.37 67.4314 1974.53 66.5807 Q1977.73 65.6895 1980.89 63.9476 L1980.89 70.8341 Q1977.77 72.2924 1974.41 73.0216 Q1971.09 73.7508 1967.32 73.7508 Q1957.07 73.7508 1951.04 67.3098 Q1945 60.8689 1945 49.9314 Q1945 38.832 1951.08 32.472 Q1957.2 26.1121 1967.81 26.1121 Q1971.25 26.1121 1974.53 26.8413 Q1977.81 27.5299 1980.89 28.9478 Z" fill="#000000" fill-rule="nonzero" fill-opacity="1" /><path clip-path="url(#clip890)" d="M1993.86 27.2059 L2001.31 27.2059 L2001.31 72.576 L1993.86 72.576 L1993.86 27.2059 M1993.86 9.54393 L2001.31 9.54393 L2001.31 18.9825 L1993.86 18.9825 L1993.86 9.54393 Z" fill="#000000" fill-rule="nonzero" fill-opacity="1" /><path clip-path="url(#clip890)" d="M2055.71 48.0275 L2055.71 51.6733 L2021.44 51.6733 Q2021.93 59.3701 2026.06 63.421 Q2030.23 67.4314 2037.65 67.4314 Q2041.94 67.4314 2045.95 66.3781 Q2050 65.3249 2053.97 63.2184 L2053.97 70.267 Q2049.96 71.9684 2045.75 72.8596 Q2041.54 73.7508 2037.2 73.7508 Q2026.34 73.7508 2019.98 67.4314 Q2013.67 61.1119 2013.67 50.3365 Q2013.67 39.1965 2019.66 32.6746 Q2025.7 26.1121 2035.9 26.1121 Q2045.06 26.1121 2050.37 32.0264 Q2055.71 37.9003 2055.71 48.0275 M2048.26 45.84 Q2048.18 39.7232 2044.82 36.0774 Q2041.5 32.4315 2035.99 32.4315 Q2029.75 32.4315 2025.98 35.9558 Q2022.25 39.4801 2021.69 45.8805 L2048.26 45.84 Z" fill="#000000" fill-rule="nonzero" fill-opacity="1" /><path clip-path="url(#clip890)" d="M2096.87 28.5427 L2096.87 35.5912 Q2093.71 33.9709 2090.31 33.1607 Q2086.91 32.3505 2083.26 32.3505 Q2077.71 32.3505 2074.92 34.0519 Q2072.16 35.7533 2072.16 39.156 Q2072.16 41.7486 2074.15 43.2475 Q2076.13 44.7058 2082.13 46.0426 L2084.68 46.6097 Q2092.62 48.3111 2095.94 51.4303 Q2099.3 54.509 2099.3 60.0587 Q2099.3 66.3781 2094.28 70.0644 Q2089.3 73.7508 2080.55 73.7508 Q2076.9 73.7508 2072.93 73.0216 Q2069 72.3329 2064.63 70.9151 L2064.63 63.2184 Q2068.76 65.3654 2072.77 66.4591 Q2076.78 67.5124 2080.71 67.5124 Q2085.97 67.5124 2088.81 65.73 Q2091.65 63.9071 2091.65 60.6258 Q2091.65 57.5877 2089.58 55.9673 Q2087.55 54.3469 2080.63 52.8481 L2078.03 52.2405 Q2071.11 50.7821 2068.03 47.7845 Q2064.95 44.7463 2064.95 39.4801 Q2064.95 33.0797 2069.49 29.5959 Q2074.02 26.1121 2082.37 26.1121 Q2086.5 26.1121 2090.15 26.7198 Q2093.79 27.3274 2096.87 28.5427 Z" fill="#000000" fill-rule="nonzero" fill-opacity="1" /><path clip-path="url(#clip891)" d="M377.516 1420.59 L377.516 1423.18 L446.415 1423.18 L446.415 1420.59 L377.516 1420.59 L377.516 1420.59  Z" fill="#009af9" fill-rule="evenodd" fill-opacity="1"/>
<polyline clip-path="url(#clip891)" style="stroke:#000000; stroke-linecap:round; stroke-linejoin:round; stroke-width:4; stroke-opacity:1; fill:none" points="377.516,1420.59 377.516,1423.18 446.415,1423.18 446.415,1420.59 377.516,1420.59 "/>
<path clip-path="url(#clip891)" d="M446.415 1420.59 L446.415 1423.18 L515.314 1423.18 L515.314 1420.59 L446.415 1420.59 L446.415 1420.59  Z" fill="#009af9" fill-rule="evenodd" fill-opacity="1"/>
<polyline clip-path="url(#clip891)" style="stroke:#000000; stroke-linecap:round; stroke-linejoin:round; stroke-width:4; stroke-opacity:1; fill:none" points="446.415,1420.59 446.415,1423.18 515.314,1423.18 515.314,1420.59 446.415,1420.59 "/>
<path clip-path="url(#clip891)" d="M515.314 1411.53 L515.314 1423.18 L584.213 1423.18 L584.213 1411.53 L515.314 1411.53 L515.314 1411.53  Z" fill="#009af9" fill-rule="evenodd" fill-opacity="1"/>
<polyline clip-path="url(#clip891)" style="stroke:#000000; stroke-linecap:round; stroke-linejoin:round; stroke-width:4; stroke-opacity:1; fill:none" points="515.314,1411.53 515.314,1423.18 584.213,1423.18 584.213,1411.53 515.314,1411.53 "/>
<path clip-path="url(#clip891)" d="M584.213 1411.53 L584.213 1423.18 L653.112 1423.18 L653.112 1411.53 L584.213 1411.53 L584.213 1411.53  Z" fill="#009af9" fill-rule="evenodd" fill-opacity="1"/>
<polyline clip-path="url(#clip891)" style="stroke:#000000; stroke-linecap:round; stroke-linejoin:round; stroke-width:4; stroke-opacity:1; fill:none" points="584.213,1411.53 584.213,1423.18 653.112,1423.18 653.112,1411.53 584.213,1411.53 "/>
<path clip-path="url(#clip891)" d="M653.112 1405.06 L653.112 1423.18 L722.012 1423.18 L722.012 1405.06 L653.112 1405.06 L653.112 1405.06  Z" fill="#009af9" fill-rule="evenodd" fill-opacity="1"/>
<polyline clip-path="url(#clip891)" style="stroke:#000000; stroke-linecap:round; stroke-linejoin:round; stroke-width:4; stroke-opacity:1; fill:none" points="653.112,1405.06 653.112,1423.18 722.012,1423.18 722.012,1405.06 653.112,1405.06 "/>
<path clip-path="url(#clip891)" d="M722.012 1397.29 L722.012 1423.18 L790.911 1423.18 L790.911 1397.29 L722.012 1397.29 L722.012 1397.29  Z" fill="#009af9" fill-rule="evenodd" fill-opacity="1"/>
<polyline clip-path="url(#clip891)" style="stroke:#000000; stroke-linecap:round; stroke-linejoin:round; stroke-width:4; stroke-opacity:1; fill:none" points="722.012,1397.29 722.012,1423.18 790.911,1423.18 790.911,1397.29 722.012,1397.29 "/>
<path clip-path="url(#clip891)" d="M790.911 1371.4 L790.911 1423.18 L859.81 1423.18 L859.81 1371.4 L790.911 1371.4 L790.911 1371.4  Z" fill="#009af9" fill-rule="evenodd" fill-opacity="1"/>
<polyline clip-path="url(#clip891)" style="stroke:#000000; stroke-linecap:round; stroke-linejoin:round; stroke-width:4; stroke-opacity:1; fill:none" points="790.911,1371.4 790.911,1423.18 859.81,1423.18 859.81,1371.4 790.911,1371.4 "/>
<path clip-path="url(#clip891)" d="M859.81 1353.28 L859.81 1423.18 L928.709 1423.18 L928.709 1353.28 L859.81 1353.28 L859.81 1353.28  Z" fill="#009af9" fill-rule="evenodd" fill-opacity="1"/>
<polyline clip-path="url(#clip891)" style="stroke:#000000; stroke-linecap:round; stroke-linejoin:round; stroke-width:4; stroke-opacity:1; fill:none" points="859.81,1353.28 859.81,1423.18 928.709,1423.18 928.709,1353.28 859.81,1353.28 "/>
<path clip-path="url(#clip891)" d="M928.709 1337.74 L928.709 1423.18 L997.608 1423.18 L997.608 1337.74 L928.709 1337.74 L928.709 1337.74  Z" fill="#009af9" fill-rule="evenodd" fill-opacity="1"/>
<polyline clip-path="url(#clip891)" style="stroke:#000000; stroke-linecap:round; stroke-linejoin:round; stroke-width:4; stroke-opacity:1; fill:none" points="928.709,1337.74 928.709,1423.18 997.608,1423.18 997.608,1337.74 928.709,1337.74 "/>
<path clip-path="url(#clip891)" d="M997.608 1318.32 L997.608 1423.18 L1066.51 1423.18 L1066.51 1318.32 L997.608 1318.32 L997.608 1318.32  Z" fill="#009af9" fill-rule="evenodd" fill-opacity="1"/>
<polyline clip-path="url(#clip891)" style="stroke:#000000; stroke-linecap:round; stroke-linejoin:round; stroke-width:4; stroke-opacity:1; fill:none" points="997.608,1318.32 997.608,1423.18 1066.51,1423.18 1066.51,1318.32 997.608,1318.32 "/>
<path clip-path="url(#clip891)" d="M1066.51 1301.49 L1066.51 1423.18 L1135.41 1423.18 L1135.41 1301.49 L1066.51 1301.49 L1066.51 1301.49  Z" fill="#009af9" fill-rule="evenodd" fill-opacity="1"/>
<polyline clip-path="url(#clip891)" style="stroke:#000000; stroke-linecap:round; stroke-linejoin:round; stroke-width:4; stroke-opacity:1; fill:none" points="1066.51,1301.49 1066.51,1423.18 1135.41,1423.18 1135.41,1301.49 1066.51,1301.49 "/>
<path clip-path="url(#clip891)" d="M1135.41 1282.08 L1135.41 1423.18 L1204.3 1423.18 L1204.3 1282.08 L1135.41 1282.08 L1135.41 1282.08  Z" fill="#009af9" fill-rule="evenodd" fill-opacity="1"/>
<polyline clip-path="url(#clip891)" style="stroke:#000000; stroke-linecap:round; stroke-linejoin:round; stroke-width:4; stroke-opacity:1; fill:none" points="1135.41,1282.08 1135.41,1423.18 1204.3,1423.18 1204.3,1282.08 1135.41,1282.08 "/>
<path clip-path="url(#clip891)" d="M1204.3 123.472 L1204.3 1423.18 L1273.2 1423.18 L1273.2 123.472 L1204.3 123.472 L1204.3 123.472  Z" fill="#009af9" fill-rule="evenodd" fill-opacity="1"/>
<polyline clip-path="url(#clip891)" style="stroke:#000000; stroke-linecap:round; stroke-linejoin:round; stroke-width:4; stroke-opacity:1; fill:none" points="1204.3,123.472 1204.3,1423.18 1273.2,1423.18 1273.2,123.472 1204.3,123.472 "/>
<path clip-path="url(#clip891)" d="M1273.2 1292.43 L1273.2 1423.18 L1342.1 1423.18 L1342.1 1292.43 L1273.2 1292.43 L1273.2 1292.43  Z" fill="#009af9" fill-rule="evenodd" fill-opacity="1"/>
<polyline clip-path="url(#clip891)" style="stroke:#000000; stroke-linecap:round; stroke-linejoin:round; stroke-width:4; stroke-opacity:1; fill:none" points="1273.2,1292.43 1273.2,1423.18 1342.1,1423.18 1342.1,1292.43 1273.2,1292.43 "/>
<path clip-path="url(#clip891)" d="M1342.1 1289.84 L1342.1 1423.18 L1411 1423.18 L1411 1289.84 L1342.1 1289.84 L1342.1 1289.84  Z" fill="#009af9" fill-rule="evenodd" fill-opacity="1"/>
<polyline clip-path="url(#clip891)" style="stroke:#000000; stroke-linecap:round; stroke-linejoin:round; stroke-width:4; stroke-opacity:1; fill:none" points="1342.1,1289.84 1342.1,1423.18 1411,1423.18 1411,1289.84 1342.1,1289.84 "/>
<path clip-path="url(#clip891)" d="M1411 1322.21 L1411 1423.18 L1479.9 1423.18 L1479.9 1322.21 L1411 1322.21 L1411 1322.21  Z" fill="#009af9" fill-rule="evenodd" fill-opacity="1"/>
<polyline clip-path="url(#clip891)" style="stroke:#000000; stroke-linecap:round; stroke-linejoin:round; stroke-width:4; stroke-opacity:1; fill:none" points="1411,1322.21 1411,1423.18 1479.9,1423.18 1479.9,1322.21 1411,1322.21 "/>
<path clip-path="url(#clip891)" d="M1479.9 1351.98 L1479.9 1423.18 L1548.8 1423.18 L1548.8 1351.98 L1479.9 1351.98 L1479.9 1351.98  Z" fill="#009af9" fill-rule="evenodd" fill-opacity="1"/>
<polyline clip-path="url(#clip891)" style="stroke:#000000; stroke-linecap:round; stroke-linejoin:round; stroke-width:4; stroke-opacity:1; fill:none" points="1479.9,1351.98 1479.9,1423.18 1548.8,1423.18 1548.8,1351.98 1479.9,1351.98 "/>
<path clip-path="url(#clip891)" d="M1548.8 1353.28 L1548.8 1423.18 L1617.7 1423.18 L1617.7 1353.28 L1548.8 1353.28 L1548.8 1353.28  Z" fill="#009af9" fill-rule="evenodd" fill-opacity="1"/>
<polyline clip-path="url(#clip891)" style="stroke:#000000; stroke-linecap:round; stroke-linejoin:round; stroke-width:4; stroke-opacity:1; fill:none" points="1548.8,1353.28 1548.8,1423.18 1617.7,1423.18 1617.7,1353.28 1548.8,1353.28 "/>
<path clip-path="url(#clip891)" d="M1617.7 1376.58 L1617.7 1423.18 L1686.6 1423.18 L1686.6 1376.58 L1617.7 1376.58 L1617.7 1376.58  Z" fill="#009af9" fill-rule="evenodd" fill-opacity="1"/>
<polyline clip-path="url(#clip891)" style="stroke:#000000; stroke-linecap:round; stroke-linejoin:round; stroke-width:4; stroke-opacity:1; fill:none" points="1617.7,1376.58 1617.7,1423.18 1686.6,1423.18 1686.6,1376.58 1617.7,1376.58 "/>
<path clip-path="url(#clip891)" d="M1686.6 1393.41 L1686.6 1423.18 L1755.5 1423.18 L1755.5 1393.41 L1686.6 1393.41 L1686.6 1393.41  Z" fill="#009af9" fill-rule="evenodd" fill-opacity="1"/>
<polyline clip-path="url(#clip891)" style="stroke:#000000; stroke-linecap:round; stroke-linejoin:round; stroke-width:4; stroke-opacity:1; fill:none" points="1686.6,1393.41 1686.6,1423.18 1755.5,1423.18 1755.5,1393.41 1686.6,1393.41 "/>
<path clip-path="url(#clip891)" d="M1755.5 1401.17 L1755.5 1423.18 L1824.4 1423.18 L1824.4 1401.17 L1755.5 1401.17 L1755.5 1401.17  Z" fill="#009af9" fill-rule="evenodd" fill-opacity="1"/>
<polyline clip-path="url(#clip891)" style="stroke:#000000; stroke-linecap:round; stroke-linejoin:round; stroke-width:4; stroke-opacity:1; fill:none" points="1755.5,1401.17 1755.5,1423.18 1824.4,1423.18 1824.4,1401.17 1755.5,1401.17 "/>
<path clip-path="url(#clip891)" d="M1824.4 1407.65 L1824.4 1423.18 L1893.3 1423.18 L1893.3 1407.65 L1824.4 1407.65 L1824.4 1407.65  Z" fill="#009af9" fill-rule="evenodd" fill-opacity="1"/>
<polyline clip-path="url(#clip891)" style="stroke:#000000; stroke-linecap:round; stroke-linejoin:round; stroke-width:4; stroke-opacity:1; fill:none" points="1824.4,1407.65 1824.4,1423.18 1893.3,1423.18 1893.3,1407.65 1824.4,1407.65 "/>
<path clip-path="url(#clip891)" d="M1893.3 1416.71 L1893.3 1423.18 L1962.19 1423.18 L1962.19 1416.71 L1893.3 1416.71 L1893.3 1416.71  Z" fill="#009af9" fill-rule="evenodd" fill-opacity="1"/>
<polyline clip-path="url(#clip891)" style="stroke:#000000; stroke-linecap:round; stroke-linejoin:round; stroke-width:4; stroke-opacity:1; fill:none" points="1893.3,1416.71 1893.3,1423.18 1962.19,1423.18 1962.19,1416.71 1893.3,1416.71 "/>
<path clip-path="url(#clip891)" d="M1962.19 1415.41 L1962.19 1423.18 L2031.09 1423.18 L2031.09 1415.41 L1962.19 1415.41 L1962.19 1415.41  Z" fill="#009af9" fill-rule="evenodd" fill-opacity="1"/>
<polyline clip-path="url(#clip891)" style="stroke:#000000; stroke-linecap:round; stroke-linejoin:round; stroke-width:4; stroke-opacity:1; fill:none" points="1962.19,1415.41 1962.19,1423.18 2031.09,1423.18 2031.09,1415.41 1962.19,1415.41 "/>
<path clip-path="url(#clip891)" d="M2031.09 1418 L2031.09 1423.18 L2099.99 1423.18 L2099.99 1418 L2031.09 1418 L2031.09 1418  Z" fill="#009af9" fill-rule="evenodd" fill-opacity="1"/>
<polyline clip-path="url(#clip891)" style="stroke:#000000; stroke-linecap:round; stroke-linejoin:round; stroke-width:4; stroke-opacity:1; fill:none" points="2031.09,1418 2031.09,1423.18 2099.99,1423.18 2099.99,1418 2031.09,1418 "/>
<path clip-path="url(#clip891)" d="M2099.99 1423.18 L2099.99 1423.18 L2168.89 1423.18 L2168.89 1423.18 L2099.99 1423.18 L2099.99 1423.18  Z" fill="#009af9" fill-rule="evenodd" fill-opacity="1"/>
<polyline clip-path="url(#clip891)" style="stroke:#000000; stroke-linecap:round; stroke-linejoin:round; stroke-width:4; stroke-opacity:1; fill:none" points="2099.99,1423.18 2099.99,1423.18 2168.89,1423.18 2099.99,1423.18 "/>
<path clip-path="url(#clip891)" d="M2168.89 1421.89 L2168.89 1423.18 L2237.79 1423.18 L2237.79 1421.89 L2168.89 1421.89 L2168.89 1421.89  Z" fill="#009af9" fill-rule="evenodd" fill-opacity="1"/>
<polyline clip-path="url(#clip891)" style="stroke:#000000; stroke-linecap:round; stroke-linejoin:round; stroke-width:4; stroke-opacity:1; fill:none" points="2168.89,1421.89 2168.89,1423.18 2237.79,1423.18 2237.79,1421.89 2168.89,1421.89 "/>
<circle clip-path="url(#clip891)" style="fill:#009af9; stroke:none; fill-opacity:0" cx="411.966" cy="1420.59" r="2"/>
<circle clip-path="url(#clip891)" style="fill:#009af9; stroke:none; fill-opacity:0" cx="480.865" cy="1420.59" r="2"/>
<circle clip-path="url(#clip891)" style="fill:#009af9; stroke:none; fill-opacity:0" cx="549.764" cy="1411.53" r="2"/>
<circle clip-path="url(#clip891)" style="fill:#009af9; stroke:none; fill-opacity:0" cx="618.663" cy="1411.53" r="2"/>
<circle clip-path="url(#clip891)" style="fill:#009af9; stroke:none; fill-opacity:0" cx="687.562" cy="1405.06" r="2"/>
<circle clip-path="url(#clip891)" style="fill:#009af9; stroke:none; fill-opacity:0" cx="756.461" cy="1397.29" r="2"/>
<circle clip-path="url(#clip891)" style="fill:#009af9; stroke:none; fill-opacity:0" cx="825.36" cy="1371.4" r="2"/>
<circle clip-path="url(#clip891)" style="fill:#009af9; stroke:none; fill-opacity:0" cx="894.259" cy="1353.28" r="2"/>
<circle clip-path="url(#clip891)" style="fill:#009af9; stroke:none; fill-opacity:0" cx="963.158" cy="1337.74" r="2"/>
<circle clip-path="url(#clip891)" style="fill:#009af9; stroke:none; fill-opacity:0" cx="1032.06" cy="1318.32" r="2"/>
<circle clip-path="url(#clip891)" style="fill:#009af9; stroke:none; fill-opacity:0" cx="1100.96" cy="1301.49" r="2"/>
<circle clip-path="url(#clip891)" style="fill:#009af9; stroke:none; fill-opacity:0" cx="1169.86" cy="1282.08" r="2"/>
<circle clip-path="url(#clip891)" style="fill:#009af9; stroke:none; fill-opacity:0" cx="1238.75" cy="123.472" r="2"/>
<circle clip-path="url(#clip891)" style="fill:#009af9; stroke:none; fill-opacity:0" cx="1307.65" cy="1292.43" r="2"/>
<circle clip-path="url(#clip891)" style="fill:#009af9; stroke:none; fill-opacity:0" cx="1376.55" cy="1289.84" r="2"/>
<circle clip-path="url(#clip891)" style="fill:#009af9; stroke:none; fill-opacity:0" cx="1445.45" cy="1322.21" r="2"/>
<circle clip-path="url(#clip891)" style="fill:#009af9; stroke:none; fill-opacity:0" cx="1514.35" cy="1351.98" r="2"/>
<circle clip-path="url(#clip891)" style="fill:#009af9; stroke:none; fill-opacity:0" cx="1583.25" cy="1353.28" r="2"/>
<circle clip-path="url(#clip891)" style="fill:#009af9; stroke:none; fill-opacity:0" cx="1652.15" cy="1376.58" r="2"/>
<circle clip-path="url(#clip891)" style="fill:#009af9; stroke:none; fill-opacity:0" cx="1721.05" cy="1393.41" r="2"/>
<circle clip-path="url(#clip891)" style="fill:#009af9; stroke:none; fill-opacity:0" cx="1789.95" cy="1401.17" r="2"/>
<circle clip-path="url(#clip891)" style="fill:#009af9; stroke:none; fill-opacity:0" cx="1858.85" cy="1407.65" r="2"/>
<circle clip-path="url(#clip891)" style="fill:#009af9; stroke:none; fill-opacity:0" cx="1927.75" cy="1416.71" r="2"/>
<circle clip-path="url(#clip891)" style="fill:#009af9; stroke:none; fill-opacity:0" cx="1996.64" cy="1415.41" r="2"/>
<circle clip-path="url(#clip891)" style="fill:#009af9; stroke:none; fill-opacity:0" cx="2065.54" cy="1418" r="2"/>
<circle clip-path="url(#clip891)" style="fill:#009af9; stroke:none; fill-opacity:0" cx="2134.44" cy="1423.18" r="2"/>
<circle clip-path="url(#clip891)" style="fill:#009af9; stroke:none; fill-opacity:0" cx="2203.34" cy="1421.89" r="2"/>
</svg>
